<svg xmlns="http://www.w3.org/2000/svg" viewBox="0 0 600 600"><defs><filter id="a-mano" x="-5%" y="-5%" width="110%" height="110%"><feTurbulence type="fractalNoise" baseFrequency="0.05" numOctaves="2" seed="7" result="n"/><feDisplacementMap in="SourceGraphic" in2="n" scale="2.6" xChannelSelector="R" yChannelSelector="G"/></filter></defs><g filter="url(#a-mano)"><g><defs><filter id="plotty0" x="-80%" y="-80%" width="260%" height="260%"><feGaussianBlur stdDeviation="7"/></filter><linearGradient id="plotty1" x1="0" y1="0" x2="0" y2="1"><stop offset="0" stop-color="#17C3B2" stop-opacity=".5"/><stop offset="1" stop-color="#17C3B2" stop-opacity="0"/></linearGradient></defs><ellipse cx="331.8" cy="584" rx="92" ry="9" fill="#0C0D11" opacity=".45"/><ellipse cx="331.8" cy="582" rx="64" ry="7" fill="#17C3B2" opacity=".3"/><g transform="translate(10 0) rotate(-5 300 300)"><path d="M288 548 L312 548 L362 600 L238 600 Z" fill="url(#plotty1)"/><clipPath id="plotty2"><path d="M277 392 H323 A8 8 0 0 1 331 400 V402 A8 8 0 0 1 323 410 H277 A8 8 0 0 1 269 402 V400 A8 8 0 0 1 277 392 Z"/></clipPath><path d="M277 392 H323 A8 8 0 0 1 331 400 V402 A8 8 0 0 1 323 410 H277 A8 8 0 0 1 269 402 V400 A8 8 0 0 1 277 392 Z" fill="#0C0D11" transform="translate(0.8 0.9)" stroke="#0C0D11" stroke-width="4.2" stroke-linejoin="round"/><path d="M277 392 H323 A8 8 0 0 1 331 400 V402 A8 8 0 0 1 323 410 H277 A8 8 0 0 1 269 402 V400 A8 8 0 0 1 277 392 Z" fill="#17446F"/><g clip-path="url(#plotty2)"><path d="M312 388 L340 388 L340 416 L312 416 Z" fill="#0E2A47"/></g><path d="M277 392 H323 A8 8 0 0 1 331 400 V402 A8 8 0 0 1 323 410 H277 A8 8 0 0 1 269 402 V400 A8 8 0 0 1 277 392 Z" fill="none" stroke="#0C0D11" stroke-width="4.2" stroke-linejoin="round" stroke-linecap="round"/><clipPath id="plotty3"><path d="M275 378 H325 A8 8 0 0 1 333 386 V388 A8 8 0 0 1 325 396 H275 A8 8 0 0 1 267 388 V386 A8 8 0 0 1 275 378 Z"/></clipPath><path d="M275 378 H325 A8 8 0 0 1 333 386 V388 A8 8 0 0 1 325 396 H275 A8 8 0 0 1 267 388 V386 A8 8 0 0 1 275 378 Z" fill="#0C0D11" transform="translate(0.8 0.9)" stroke="#0C0D11" stroke-width="4.2" stroke-linejoin="round"/><path d="M275 378 H325 A8 8 0 0 1 333 386 V388 A8 8 0 0 1 325 396 H275 A8 8 0 0 1 267 388 V386 A8 8 0 0 1 275 378 Z" fill="#17446F"/><g clip-path="url(#plotty3)"><path d="M312 374 L340 374 L340 402 L312 402 Z" fill="#0E2A47"/></g><path d="M275 378 H325 A8 8 0 0 1 333 386 V388 A8 8 0 0 1 325 396 H275 A8 8 0 0 1 267 388 V386 A8 8 0 0 1 275 378 Z" fill="none" stroke="#0C0D11" stroke-width="4.2" stroke-linejoin="round" stroke-linecap="round"/><clipPath id="plotty4"><path d="M273 364 H327 A8 8 0 0 1 335 372 V374 A8 8 0 0 1 327 382 H273 A8 8 0 0 1 265 374 V372 A8 8 0 0 1 273 364 Z"/></clipPath><path d="M273 364 H327 A8 8 0 0 1 335 372 V374 A8 8 0 0 1 327 382 H273 A8 8 0 0 1 265 374 V372 A8 8 0 0 1 273 364 Z" fill="#0C0D11" transform="translate(0.8 0.9)" stroke="#0C0D11" stroke-width="4.2" stroke-linejoin="round"/><path d="M273 364 H327 A8 8 0 0 1 335 372 V374 A8 8 0 0 1 327 382 H273 A8 8 0 0 1 265 374 V372 A8 8 0 0 1 273 364 Z" fill="#17446F"/><g clip-path="url(#plotty4)"><path d="M312 360 L340 360 L340 388 L312 388 Z" fill="#0E2A47"/></g><path d="M273 364 H327 A8 8 0 0 1 335 372 V374 A8 8 0 0 1 327 382 H273 A8 8 0 0 1 265 374 V372 A8 8 0 0 1 273 364 Z" fill="none" stroke="#0C0D11" stroke-width="4.2" stroke-linejoin="round" stroke-linecap="round"/><clipPath id="plotty5"><path d="M246 426 C255 424.7 282 418 300 418 C318 418 340.7 420 354 426 C367.3 432 377 442.3 380 454 C383 465.7 385.3 484.7 372 496 C358.7 507.3 324 522 300 522 C276 522 241.3 507.3 228 496 C214.7 484.7 217 465.7 220 454 C223 442.3 241.7 430.7 246 426 Z"/></clipPath><path d="M246 426 C255 424.7 282 418 300 418 C318 418 340.7 420 354 426 C367.3 432 377 442.3 380 454 C383 465.7 385.3 484.7 372 496 C358.7 507.3 324 522 300 522 C276 522 241.3 507.3 228 496 C214.7 484.7 217 465.7 220 454 C223 442.3 241.7 430.7 246 426 Z" fill="#0C0D11" transform="translate(2.4 2.8)" stroke="#0C0D11" stroke-width="6" stroke-linejoin="round"/><path d="M246 426 C255 424.7 282 418 300 418 C318 418 340.7 420 354 426 C367.3 432 377 442.3 380 454 C383 465.7 385.3 484.7 372 496 C358.7 507.3 324 522 300 522 C276 522 241.3 507.3 228 496 C214.7 484.7 217 465.7 220 454 C223 442.3 241.7 430.7 246 426 Z" fill="#EEF2F6"/><g clip-path="url(#plotty5)"><path d="M246 426 C255 424.7 282 418 300 418 C318 418 340.7 420 354 426 C367.3 432 377 442.3 380 454 C383 465.7 385.3 484.7 372 496 C358.7 507.3 324 522 300 522 C276 522 241.3 507.3 228 496 C214.7 484.7 217 465.7 220 454 C223 442.3 241.7 430.7 246 426 Z M230 412 C239 410.7 266 404 284 404 C302 404 324.7 406 338 412 C351.3 418 361 428.3 364 440 C367 451.7 369.3 470.7 356 482 C342.7 493.3 308 508 284 508 C260 508 225.3 493.3 212 482 C198.7 470.7 201 451.7 204 440 C207 428.3 225.7 416.7 230 412 Z" fill="#B9C8D8" fill-rule="evenodd"/></g><path d="M246 426 C255 424.7 282 418 300 418 C318 418 340.7 420 354 426 C367.3 432 377 442.3 380 454 C383 465.7 385.3 484.7 372 496 C358.7 507.3 324 522 300 522 C276 522 241.3 507.3 228 496 C214.7 484.7 217 465.7 220 454 C223 442.3 241.7 430.7 246 426 Z" fill="none" stroke="#0C0D11" stroke-width="6" stroke-linejoin="round" stroke-linecap="round"/><g transform="translate(297 472) scale(0.72) translate(-297 -472)"><path d="M272.4 469.8Q272.4 455 278.8 448.3Q285.2 441.6 297 441.6Q308.8 441.6 315.2 448.3Q321.6 455 321.6 469.8Q321.6 483.4 315.8 490.7Q309.8 498 297 498Q285.2 498 278.8 491.3Q272.4 484.5 272.4 469.8ZM301.8 480.3L301.8 459.2Q301.8 454 297 454Q292.2 454 292.2 459.2L292.2 480.3Q292.2 485.5 297 485.5Q301.8 485.5 301.8 480.3Z" fill="#17C3B2" stroke="#0C0D11" stroke-width="5.5" paint-order="stroke" transform="rotate(-3 297 470)"/></g><ellipse cx="300" cy="554" rx="26" ry="30" fill="#17C3B2" opacity=".8" filter="url(#plotty0)"/><path d="M285 536 Q285 556 300 580 Q315 556 315 536 Z" fill="#17C3B2"/><path d="M292 536 Q292 551 300 567 Q308 551 308 536 Z" fill="#E9FFFC"/><clipPath id="plotty6"><path d="M276 514 L324 514 L318 534 L282 534 Z"/></clipPath><path d="M276 514 L324 514 L318 534 L282 534 Z" fill="#17446F"/><g clip-path="url(#plotty6)"><path d="M304 510 L332 510 L332 540 L306 540 Z" fill="#0E2A47"/></g><path d="M276 514 L324 514 L318 534 L282 534 Z" fill="none" stroke="#0C0D11" stroke-width="4.6" stroke-linejoin="round" stroke-linecap="round"/><clipPath id="plotty7"><path d="M278 532 L322 532 Q324 540 318 542 L282 542 Q276 540 278 532 Z"/></clipPath><path d="M278 532 L322 532 Q324 540 318 542 L282 542 Q276 540 278 532 Z" fill="#B9C8D8"/><g clip-path="url(#plotty7)"><path d="M306 528 L330 528 L330 546 L308 546 Z" fill="#8197AF"/></g><path d="M278 532 L322 532 Q324 540 318 542 L282 542 Q276 540 278 532 Z" fill="none" stroke="#0C0D11" stroke-width="4" stroke-linejoin="round" stroke-linecap="round"/><path d="M27.6 60 A88 17 0 0 1 100.1 49.1 M158.8 51.9 A88 17 0 0 1 196.5 62.9" fill="none" stroke="#DDF4F1" stroke-width="3" stroke-linecap="round" opacity=".55"/><clipPath id="plotty8"><path d="M185.2 130.4 C174.5 123.1 132 94 121.4 86.8 C119.6 85.5 108.9 99.9 110.6 101.2 C120.7 109.3 160.8 141.6 170.8 149.6 Z"/></clipPath><path d="M185.2 130.4 C174.5 123.1 132 94 121.4 86.8 C119.6 85.5 108.9 99.9 110.6 101.2 C120.7 109.3 160.8 141.6 170.8 149.6 Z" fill="#0C0D11" transform="translate(1.6 1.8)" stroke="#0C0D11" stroke-width="5" stroke-linejoin="round"/><path d="M185.2 130.4 C174.5 123.1 132 94 121.4 86.8 C119.6 85.5 108.9 99.9 110.6 101.2 C120.7 109.3 160.8 141.6 170.8 149.6 Z" fill="#B9C8D8"/><g clip-path="url(#plotty8)"><path d="M178 144 L110 98 L110 130 L178 176 Z" fill="#8197AF"/></g><path d="M185.2 130.4 C174.5 123.1 132 94 121.4 86.8 C119.6 85.5 108.9 99.9 110.6 101.2 C120.7 109.3 160.8 141.6 170.8 149.6 Z" fill="none" stroke="#0C0D11" stroke-width="5" stroke-linejoin="round" stroke-linecap="round"/><clipPath id="plotty9"><path d="M86 80 L134 80 L132 106 Q110 114 88 106 Z"/></clipPath><path d="M86 80 L134 80 L132 106 Q110 114 88 106 Z" fill="#0C0D11" transform="translate(1.4 1.6)" stroke="#0C0D11" stroke-width="5" stroke-linejoin="round"/><path d="M86 80 L134 80 L132 106 Q110 114 88 106 Z" fill="#35679A"/><g clip-path="url(#plotty9)"><path d="M114 76 L140 76 L140 118 L114 118 Z" fill="#1F4673"/></g><path d="M86 80 L134 80 L132 106 Q110 114 88 106 Z" fill="none" stroke="#0C0D11" stroke-width="5" stroke-linejoin="round" stroke-linecap="round"/><clipPath id="plotty10"><path d="M86 80 A24 8 0 1 1 134 80 A24 8 0 1 1 86 80 Z"/></clipPath><path d="M86 80 A24 8 0 1 1 134 80 A24 8 0 1 1 86 80 Z" fill="#E1E9F1"/><path d="M86 80 A24 8 0 1 1 134 80 A24 8 0 1 1 86 80 Z" fill="none" stroke="#0C0D11" stroke-width="4.4" stroke-linejoin="round" stroke-linecap="round"/><clipPath id="plotty11"><path d="M105 68 L115 68 L115 78 L105 78 Z"/></clipPath><path d="M105 68 L115 68 L115 78 L105 78 Z" fill="#B9C8D8"/><path d="M105 68 L115 68 L115 78 L105 78 Z" fill="none" stroke="#0C0D11" stroke-width="3.4" stroke-linejoin="round" stroke-linecap="round"/><g transform="translate(110 66) rotate(8) scale(1 1)"><clipPath id="plotty12"><path d="M6 -2.6 C10.7 -3.3 24.3 -6.2 34 -7 C43.7 -7.8 56 -8.1 64 -7.4 C72 -6.7 78.7 -4.4 82 -3 C85.3 -1.6 86.7 -0.4 84 1 C81.3 2.4 74 4.8 66 5.6 C58 6.4 46 6.4 36 6 C26 5.6 11 4.4 6 3 C1 1.6 6 -1.7 6 -2.6 Z"/></clipPath><path d="M6 -2.6 C10.7 -3.3 24.3 -6.2 34 -7 C43.7 -7.8 56 -8.1 64 -7.4 C72 -6.7 78.7 -4.4 82 -3 C85.3 -1.6 86.7 -0.4 84 1 C81.3 2.4 74 4.8 66 5.6 C58 6.4 46 6.4 36 6 C26 5.6 11 4.4 6 3 C1 1.6 6 -1.7 6 -2.6 Z" fill="#B9C8D8"/><g clip-path="url(#plotty12)"><path d="M0 1 L90 0 L90 10 L0 10 Z" fill="#8197AF"/></g><path d="M6 -2.6 C10.7 -3.3 24.3 -6.2 34 -7 C43.7 -7.8 56 -8.1 64 -7.4 C72 -6.7 78.7 -4.4 82 -3 C85.3 -1.6 86.7 -0.4 84 1 C81.3 2.4 74 4.8 66 5.6 C58 6.4 46 6.4 36 6 C26 5.6 11 4.4 6 3 C1 1.6 6 -1.7 6 -2.6 Z" fill="none" stroke="#0C0D11" stroke-width="3.8" stroke-linejoin="round" stroke-linecap="round"/></g><g transform="translate(110 66) rotate(188) scale(1 0.8)"><clipPath id="plotty13"><path d="M6 -2.6 C10.7 -3.3 24.3 -6.2 34 -7 C43.7 -7.8 56 -8.1 64 -7.4 C72 -6.7 78.7 -4.4 82 -3 C85.3 -1.6 86.7 -0.4 84 1 C81.3 2.4 74 4.8 66 5.6 C58 6.4 46 6.4 36 6 C26 5.6 11 4.4 6 3 C1 1.6 6 -1.7 6 -2.6 Z"/></clipPath><path d="M6 -2.6 C10.7 -3.3 24.3 -6.2 34 -7 C43.7 -7.8 56 -8.1 64 -7.4 C72 -6.7 78.7 -4.4 82 -3 C85.3 -1.6 86.7 -0.4 84 1 C81.3 2.4 74 4.8 66 5.6 C58 6.4 46 6.4 36 6 C26 5.6 11 4.4 6 3 C1 1.6 6 -1.7 6 -2.6 Z" fill="#B9C8D8"/><g clip-path="url(#plotty13)"><path d="M0 1 L90 0 L90 10 L0 10 Z" fill="#8197AF"/></g><path d="M6 -2.6 C10.7 -3.3 24.3 -6.2 34 -7 C43.7 -7.8 56 -8.1 64 -7.4 C72 -6.7 78.7 -4.4 82 -3 C85.3 -1.6 86.7 -0.4 84 1 C81.3 2.4 74 4.8 66 5.6 C58 6.4 46 6.4 36 6 C26 5.6 11 4.4 6 3 C1 1.6 6 -1.7 6 -2.6 Z" fill="none" stroke="#0C0D11" stroke-width="3.8" stroke-linejoin="round" stroke-linecap="round"/></g><clipPath id="plotty14"><path d="M102 66 A8 8 0 1 1 118 66 A8 8 0 1 1 102 66 Z"/></clipPath><path d="M102 66 A8 8 0 1 1 118 66 A8 8 0 1 1 102 66 Z" fill="#E1E9F1"/><path d="M102 66 A8 8 0 1 1 118 66 A8 8 0 1 1 102 66 Z" fill="none" stroke="#0C0D11" stroke-width="3.6" stroke-linejoin="round" stroke-linecap="round"/><path d="M189 74.6 A90 18 0 0 1 116.4 84 M80.9 83 A90 18 0 0 1 28.6 73.7" fill="none" stroke="#DDF4F1" stroke-width="3.6" stroke-linecap="round" opacity=".85"/><path d="M407.6 60 A88 17 0 0 1 480.1 49.1 M538.8 51.9 A88 17 0 0 1 576.5 62.9" fill="none" stroke="#DDF4F1" stroke-width="3" stroke-linecap="round" opacity=".55"/><clipPath id="plotty15"><path d="M429.2 149.6 C439.2 141.6 479.3 109.3 489.4 101.2 C491.1 99.9 480.4 85.5 478.6 86.8 C468 94 425.5 123.1 414.8 130.4 Z"/></clipPath><path d="M429.2 149.6 C439.2 141.6 479.3 109.3 489.4 101.2 C491.1 99.9 480.4 85.5 478.6 86.8 C468 94 425.5 123.1 414.8 130.4 Z" fill="#0C0D11" transform="translate(1.6 1.8)" stroke="#0C0D11" stroke-width="5" stroke-linejoin="round"/><path d="M429.2 149.6 C439.2 141.6 479.3 109.3 489.4 101.2 C491.1 99.9 480.4 85.5 478.6 86.8 C468 94 425.5 123.1 414.8 130.4 Z" fill="#B9C8D8"/><g clip-path="url(#plotty15)"><path d="M422 144 L490 98 L490 130 L422 176 Z" fill="#8197AF"/></g><path d="M429.2 149.6 C439.2 141.6 479.3 109.3 489.4 101.2 C491.1 99.9 480.4 85.5 478.6 86.8 C468 94 425.5 123.1 414.8 130.4 Z" fill="none" stroke="#0C0D11" stroke-width="5" stroke-linejoin="round" stroke-linecap="round"/><clipPath id="plotty16"><path d="M466 80 L514 80 L512 106 Q490 114 468 106 Z"/></clipPath><path d="M466 80 L514 80 L512 106 Q490 114 468 106 Z" fill="#0C0D11" transform="translate(1.4 1.6)" stroke="#0C0D11" stroke-width="5" stroke-linejoin="round"/><path d="M466 80 L514 80 L512 106 Q490 114 468 106 Z" fill="#35679A"/><g clip-path="url(#plotty16)"><path d="M494 76 L520 76 L520 118 L494 118 Z" fill="#1F4673"/></g><path d="M466 80 L514 80 L512 106 Q490 114 468 106 Z" fill="none" stroke="#0C0D11" stroke-width="5" stroke-linejoin="round" stroke-linecap="round"/><clipPath id="plotty17"><path d="M466 80 A24 8 0 1 1 514 80 A24 8 0 1 1 466 80 Z"/></clipPath><path d="M466 80 A24 8 0 1 1 514 80 A24 8 0 1 1 466 80 Z" fill="#E1E9F1"/><path d="M466 80 A24 8 0 1 1 514 80 A24 8 0 1 1 466 80 Z" fill="none" stroke="#0C0D11" stroke-width="4.4" stroke-linejoin="round" stroke-linecap="round"/><clipPath id="plotty18"><path d="M485 68 L495 68 L495 78 L485 78 Z"/></clipPath><path d="M485 68 L495 68 L495 78 L485 78 Z" fill="#B9C8D8"/><path d="M485 68 L495 68 L495 78 L485 78 Z" fill="none" stroke="#0C0D11" stroke-width="3.4" stroke-linejoin="round" stroke-linecap="round"/><g transform="translate(490 66) rotate(-10) scale(1 1)"><clipPath id="plotty19"><path d="M6 -2.6 C10.7 -3.3 24.3 -6.2 34 -7 C43.7 -7.8 56 -8.1 64 -7.4 C72 -6.7 78.7 -4.4 82 -3 C85.3 -1.6 86.7 -0.4 84 1 C81.3 2.4 74 4.8 66 5.6 C58 6.4 46 6.4 36 6 C26 5.6 11 4.4 6 3 C1 1.6 6 -1.7 6 -2.6 Z"/></clipPath><path d="M6 -2.6 C10.7 -3.3 24.3 -6.2 34 -7 C43.7 -7.8 56 -8.1 64 -7.4 C72 -6.7 78.7 -4.4 82 -3 C85.3 -1.6 86.7 -0.4 84 1 C81.3 2.4 74 4.8 66 5.6 C58 6.4 46 6.4 36 6 C26 5.6 11 4.4 6 3 C1 1.6 6 -1.7 6 -2.6 Z" fill="#B9C8D8"/><g clip-path="url(#plotty19)"><path d="M0 1 L90 0 L90 10 L0 10 Z" fill="#8197AF"/></g><path d="M6 -2.6 C10.7 -3.3 24.3 -6.2 34 -7 C43.7 -7.8 56 -8.1 64 -7.4 C72 -6.7 78.7 -4.4 82 -3 C85.3 -1.6 86.7 -0.4 84 1 C81.3 2.4 74 4.8 66 5.6 C58 6.4 46 6.4 36 6 C26 5.6 11 4.4 6 3 C1 1.6 6 -1.7 6 -2.6 Z" fill="none" stroke="#0C0D11" stroke-width="3.8" stroke-linejoin="round" stroke-linecap="round"/></g><g transform="translate(490 66) rotate(170) scale(1 0.8)"><clipPath id="plotty20"><path d="M6 -2.6 C10.7 -3.3 24.3 -6.2 34 -7 C43.7 -7.8 56 -8.1 64 -7.4 C72 -6.7 78.7 -4.4 82 -3 C85.3 -1.6 86.7 -0.4 84 1 C81.3 2.4 74 4.8 66 5.6 C58 6.4 46 6.4 36 6 C26 5.6 11 4.4 6 3 C1 1.6 6 -1.7 6 -2.6 Z"/></clipPath><path d="M6 -2.6 C10.7 -3.3 24.3 -6.2 34 -7 C43.7 -7.8 56 -8.1 64 -7.4 C72 -6.7 78.7 -4.4 82 -3 C85.3 -1.6 86.7 -0.4 84 1 C81.3 2.4 74 4.8 66 5.6 C58 6.4 46 6.4 36 6 C26 5.6 11 4.4 6 3 C1 1.6 6 -1.7 6 -2.6 Z" fill="#B9C8D8"/><g clip-path="url(#plotty20)"><path d="M0 1 L90 0 L90 10 L0 10 Z" fill="#8197AF"/></g><path d="M6 -2.6 C10.7 -3.3 24.3 -6.2 34 -7 C43.7 -7.8 56 -8.1 64 -7.4 C72 -6.7 78.7 -4.4 82 -3 C85.3 -1.6 86.7 -0.4 84 1 C81.3 2.4 74 4.8 66 5.6 C58 6.4 46 6.4 36 6 C26 5.6 11 4.4 6 3 C1 1.6 6 -1.7 6 -2.6 Z" fill="none" stroke="#0C0D11" stroke-width="3.8" stroke-linejoin="round" stroke-linecap="round"/></g><clipPath id="plotty21"><path d="M482 66 A8 8 0 1 1 498 66 A8 8 0 1 1 482 66 Z"/></clipPath><path d="M482 66 A8 8 0 1 1 498 66 A8 8 0 1 1 482 66 Z" fill="#E1E9F1"/><path d="M482 66 A8 8 0 1 1 498 66 A8 8 0 1 1 482 66 Z" fill="none" stroke="#0C0D11" stroke-width="3.6" stroke-linejoin="round" stroke-linecap="round"/><path d="M569 74.6 A90 18 0 0 1 496.4 84 M460.9 83 A90 18 0 0 1 408.6 73.7" fill="none" stroke="#DDF4F1" stroke-width="3.6" stroke-linecap="round" opacity=".85"/><clipPath id="plotty22"><path d="M318 104 Q336 80 354 104 Z"/></clipPath><path d="M318 104 Q336 80 354 104 Z" fill="#0C0D11" transform="translate(1 1.2)" stroke="#0C0D11" stroke-width="4.4" stroke-linejoin="round"/><path d="M318 104 Q336 80 354 104 Z" fill="#B9C8D8"/><g clip-path="url(#plotty22)"><path d="M338 72 L366 72 L366 108 L338 108 Z" fill="#8197AF"/></g><path d="M318 104 Q336 80 354 104 Z" fill="none" stroke="#0C0D11" stroke-width="4.4" stroke-linejoin="round" stroke-linecap="round"/><path d="M336 88 C338 52 344 84 350 58" fill="none" stroke="#0C0D11" stroke-width="12" stroke-linejoin="round" stroke-linecap="round"/><path d="M336 88 C338 52 344 84 350 58" fill="none" stroke="#B9C8D8" stroke-width="5" stroke-linejoin="round" stroke-linecap="round"/><circle cx="350" cy="44" r="30" fill="#17C3B2" opacity=".5" filter="url(#plotty0)"/><clipPath id="plotty23"><path d="M333 44 A17 17 0 1 1 367 44 A17 17 0 1 1 333 44 Z"/></clipPath><path d="M333 44 A17 17 0 1 1 367 44 A17 17 0 1 1 333 44 Z" fill="#0C0D11" transform="translate(1.2 1.4)" stroke="#0C0D11" stroke-width="4.6" stroke-linejoin="round"/><path d="M333 44 A17 17 0 1 1 367 44 A17 17 0 1 1 333 44 Z" fill="#17C3B2"/><g clip-path="url(#plotty23)"><path d="<path d="M320 50 Q354 48 364 22 L380 14 L380 74 L320 74 Z" fill="#0A8A7E"/>" fill="undefined"/></g><path d="M333 44 A17 17 0 1 1 367 44 A17 17 0 1 1 333 44 Z" fill="none" stroke="#0C0D11" stroke-width="4.6" stroke-linejoin="round" stroke-linecap="round"/><circle cx="344" cy="38" r="5" fill="#E9FFFC"/><clipPath id="plotty24"><path d="M470 240 C469.9 248.2 469.9 278.1 469.6 289.4 C469.4 300.7 469 302.3 468.5 307.6 C468 312.8 467.4 316.9 466.6 320.9 C465.9 325 465 328.4 464 331.8 C463 335.1 461.8 338.1 460.6 340.9 C459.3 343.7 457.9 346.3 456.3 348.7 C454.8 351.1 453.1 353.4 451.2 355.5 C449.4 357.6 447.4 359.5 445.2 361.3 C443.1 363.1 440.7 364.8 438.2 366.3 C435.7 367.9 433.1 369.3 430.1 370.6 C427.2 371.9 424.2 373 420.8 374.1 C417.4 375.2 413.8 376.1 409.9 377 C405.9 377.8 401.7 378.6 396.9 379.2 C392.1 379.8 387.2 380.3 380.9 380.8 C374.6 381.2 372.6 381.5 359.1 381.7 C345.7 381.9 319.7 382 300 382 C280.3 382 254.3 381.9 240.9 381.7 C227.4 381.5 225.4 381.2 219.1 380.8 C212.8 380.3 207.9 379.8 203.1 379.2 C198.3 378.6 194.1 377.8 190.1 377 C186.2 376.1 182.6 375.2 179.2 374.1 C175.8 373 172.8 371.9 169.9 370.6 C166.9 369.3 164.3 367.9 161.8 366.3 C159.3 364.8 156.9 363.1 154.8 361.3 C152.6 359.5 150.6 357.6 148.8 355.5 C146.9 353.4 145.2 351.1 143.7 348.7 C142.1 346.3 140.7 343.7 139.4 340.9 C138.2 338.1 137 335.1 136 331.8 C135 328.4 134.1 325 133.4 320.9 C132.6 316.9 132 312.8 131.5 307.6 C131 302.3 130.6 300.7 130.4 289.4 C130.1 278.1 130 256.5 130 240 C130 223.5 130.1 201.9 130.4 190.6 C130.6 179.3 131 177.7 131.5 172.4 C132 167.2 132.6 163.1 133.4 159.1 C134.1 155 135 151.6 136 148.2 C137 144.9 138.2 141.9 139.4 139.1 C140.7 136.3 142.1 133.7 143.7 131.3 C145.2 128.9 146.9 126.6 148.8 124.5 C150.6 122.4 152.6 120.5 154.8 118.7 C156.9 116.9 159.3 115.2 161.8 113.7 C164.3 112.1 166.9 110.7 169.9 109.4 C172.8 108.1 175.8 107 179.2 105.9 C182.6 104.8 186.2 103.9 190.1 103 C194.1 102.2 198.3 101.4 203.1 100.8 C207.9 100.2 212.8 99.7 219.1 99.2 C225.4 98.8 227.4 98.5 240.9 98.3 C254.3 98.1 280.3 98 300 98 C319.7 98 345.7 98.1 359.1 98.3 C372.6 98.5 374.6 98.8 380.9 99.2 C387.2 99.7 392.1 100.2 396.9 100.8 C401.7 101.4 405.9 102.2 409.9 103 C413.8 103.9 417.4 104.8 420.8 105.9 C424.2 107 427.2 108.1 430.1 109.4 C433.1 110.7 435.7 112.1 438.2 113.7 C440.7 115.2 443.1 116.9 445.2 118.7 C447.4 120.5 449.4 122.4 451.2 124.5 C453.1 126.6 454.8 128.9 456.3 131.3 C457.9 133.7 459.3 136.3 460.6 139.1 C461.8 141.9 463 144.9 464 148.2 C465 151.6 465.9 155 466.6 159.1 C467.4 163.1 468 167.2 468.5 172.4 C469 177.7 469.4 179.3 469.6 190.6 C469.9 201.9 469.9 231.8 470 240 Z"/></clipPath><path d="M470 240 C469.9 248.2 469.9 278.1 469.6 289.4 C469.4 300.7 469 302.3 468.5 307.6 C468 312.8 467.4 316.9 466.6 320.9 C465.9 325 465 328.4 464 331.8 C463 335.1 461.8 338.1 460.6 340.9 C459.3 343.7 457.9 346.3 456.3 348.7 C454.8 351.1 453.1 353.4 451.2 355.5 C449.4 357.6 447.4 359.5 445.2 361.3 C443.1 363.1 440.7 364.8 438.2 366.3 C435.7 367.9 433.1 369.3 430.1 370.6 C427.2 371.9 424.2 373 420.8 374.1 C417.4 375.2 413.8 376.1 409.9 377 C405.9 377.8 401.7 378.6 396.9 379.2 C392.1 379.8 387.2 380.3 380.9 380.8 C374.6 381.2 372.6 381.5 359.1 381.7 C345.7 381.9 319.7 382 300 382 C280.3 382 254.3 381.9 240.9 381.7 C227.4 381.5 225.4 381.2 219.1 380.8 C212.8 380.3 207.9 379.8 203.1 379.2 C198.3 378.6 194.1 377.8 190.1 377 C186.2 376.1 182.6 375.2 179.2 374.1 C175.8 373 172.8 371.9 169.9 370.6 C166.9 369.3 164.3 367.9 161.8 366.3 C159.3 364.8 156.9 363.1 154.8 361.3 C152.6 359.5 150.6 357.6 148.8 355.5 C146.9 353.4 145.2 351.1 143.7 348.7 C142.1 346.3 140.7 343.7 139.4 340.9 C138.2 338.1 137 335.1 136 331.8 C135 328.4 134.1 325 133.4 320.9 C132.6 316.9 132 312.8 131.5 307.6 C131 302.3 130.6 300.7 130.4 289.4 C130.1 278.1 130 256.5 130 240 C130 223.5 130.1 201.9 130.4 190.6 C130.6 179.3 131 177.7 131.5 172.4 C132 167.2 132.6 163.1 133.4 159.1 C134.1 155 135 151.6 136 148.2 C137 144.9 138.2 141.9 139.4 139.1 C140.7 136.3 142.1 133.7 143.7 131.3 C145.2 128.9 146.9 126.6 148.8 124.5 C150.6 122.4 152.6 120.5 154.8 118.7 C156.9 116.9 159.3 115.2 161.8 113.7 C164.3 112.1 166.9 110.7 169.9 109.4 C172.8 108.1 175.8 107 179.2 105.9 C182.6 104.8 186.2 103.9 190.1 103 C194.1 102.2 198.3 101.4 203.1 100.8 C207.9 100.2 212.8 99.7 219.1 99.2 C225.4 98.8 227.4 98.5 240.9 98.3 C254.3 98.1 280.3 98 300 98 C319.7 98 345.7 98.1 359.1 98.3 C372.6 98.5 374.6 98.8 380.9 99.2 C387.2 99.7 392.1 100.2 396.9 100.8 C401.7 101.4 405.9 102.2 409.9 103 C413.8 103.9 417.4 104.8 420.8 105.9 C424.2 107 427.2 108.1 430.1 109.4 C433.1 110.7 435.7 112.1 438.2 113.7 C440.7 115.2 443.1 116.9 445.2 118.7 C447.4 120.5 449.4 122.4 451.2 124.5 C453.1 126.6 454.8 128.9 456.3 131.3 C457.9 133.7 459.3 136.3 460.6 139.1 C461.8 141.9 463 144.9 464 148.2 C465 151.6 465.9 155 466.6 159.1 C467.4 163.1 468 167.2 468.5 172.4 C469 177.7 469.4 179.3 469.6 190.6 C469.9 201.9 469.9 231.8 470 240 Z" fill="#0C0D11" transform="translate(2.4 2.8)" stroke="#0C0D11" stroke-width="6" stroke-linejoin="round"/><path d="M470 240 C469.9 248.2 469.9 278.1 469.6 289.4 C469.4 300.7 469 302.3 468.5 307.6 C468 312.8 467.4 316.9 466.6 320.9 C465.9 325 465 328.4 464 331.8 C463 335.1 461.8 338.1 460.6 340.9 C459.3 343.7 457.9 346.3 456.3 348.7 C454.8 351.1 453.1 353.4 451.2 355.5 C449.4 357.6 447.4 359.5 445.2 361.3 C443.1 363.1 440.7 364.8 438.2 366.3 C435.7 367.9 433.1 369.3 430.1 370.6 C427.2 371.9 424.2 373 420.8 374.1 C417.4 375.2 413.8 376.1 409.9 377 C405.9 377.8 401.7 378.6 396.9 379.2 C392.1 379.8 387.2 380.3 380.9 380.8 C374.6 381.2 372.6 381.5 359.1 381.7 C345.7 381.9 319.7 382 300 382 C280.3 382 254.3 381.9 240.9 381.7 C227.4 381.5 225.4 381.2 219.1 380.8 C212.8 380.3 207.9 379.8 203.1 379.2 C198.3 378.6 194.1 377.8 190.1 377 C186.2 376.1 182.6 375.2 179.2 374.1 C175.8 373 172.8 371.9 169.9 370.6 C166.9 369.3 164.3 367.9 161.8 366.3 C159.3 364.8 156.9 363.1 154.8 361.3 C152.6 359.5 150.6 357.6 148.8 355.5 C146.9 353.4 145.2 351.1 143.7 348.7 C142.1 346.3 140.7 343.7 139.4 340.9 C138.2 338.1 137 335.1 136 331.8 C135 328.4 134.1 325 133.4 320.9 C132.6 316.9 132 312.8 131.5 307.6 C131 302.3 130.6 300.7 130.4 289.4 C130.1 278.1 130 256.5 130 240 C130 223.5 130.1 201.9 130.4 190.6 C130.6 179.3 131 177.7 131.5 172.4 C132 167.2 132.6 163.1 133.4 159.1 C134.1 155 135 151.6 136 148.2 C137 144.9 138.2 141.9 139.4 139.1 C140.7 136.3 142.1 133.7 143.7 131.3 C145.2 128.9 146.9 126.6 148.8 124.5 C150.6 122.4 152.6 120.5 154.8 118.7 C156.9 116.9 159.3 115.2 161.8 113.7 C164.3 112.1 166.9 110.7 169.9 109.4 C172.8 108.1 175.8 107 179.2 105.9 C182.6 104.8 186.2 103.9 190.1 103 C194.1 102.2 198.3 101.4 203.1 100.8 C207.9 100.2 212.8 99.7 219.1 99.2 C225.4 98.8 227.4 98.5 240.9 98.3 C254.3 98.1 280.3 98 300 98 C319.7 98 345.7 98.1 359.1 98.3 C372.6 98.5 374.6 98.8 380.9 99.2 C387.2 99.7 392.1 100.2 396.9 100.8 C401.7 101.4 405.9 102.2 409.9 103 C413.8 103.9 417.4 104.8 420.8 105.9 C424.2 107 427.2 108.1 430.1 109.4 C433.1 110.7 435.7 112.1 438.2 113.7 C440.7 115.2 443.1 116.9 445.2 118.7 C447.4 120.5 449.4 122.4 451.2 124.5 C453.1 126.6 454.8 128.9 456.3 131.3 C457.9 133.7 459.3 136.3 460.6 139.1 C461.8 141.9 463 144.9 464 148.2 C465 151.6 465.9 155 466.6 159.1 C467.4 163.1 468 167.2 468.5 172.4 C469 177.7 469.4 179.3 469.6 190.6 C469.9 201.9 469.9 231.8 470 240 Z" fill="#EEF2F6"/><g clip-path="url(#plotty24)"><path d="M470 240 C469.9 248.2 469.9 278.1 469.6 289.4 C469.4 300.7 469 302.3 468.5 307.6 C468 312.8 467.4 316.9 466.6 320.9 C465.9 325 465 328.4 464 331.8 C463 335.1 461.8 338.1 460.6 340.9 C459.3 343.7 457.9 346.3 456.3 348.7 C454.8 351.1 453.1 353.4 451.2 355.5 C449.4 357.6 447.4 359.5 445.2 361.3 C443.1 363.1 440.7 364.8 438.2 366.3 C435.7 367.9 433.1 369.3 430.1 370.6 C427.2 371.9 424.2 373 420.8 374.1 C417.4 375.2 413.8 376.1 409.9 377 C405.9 377.8 401.7 378.6 396.9 379.2 C392.1 379.8 387.2 380.3 380.9 380.8 C374.6 381.2 372.6 381.5 359.1 381.7 C345.7 381.9 319.7 382 300 382 C280.3 382 254.3 381.9 240.9 381.7 C227.4 381.5 225.4 381.2 219.1 380.8 C212.8 380.3 207.9 379.8 203.1 379.2 C198.3 378.6 194.1 377.8 190.1 377 C186.2 376.1 182.6 375.2 179.2 374.1 C175.8 373 172.8 371.9 169.9 370.6 C166.9 369.3 164.3 367.9 161.8 366.3 C159.3 364.8 156.9 363.1 154.8 361.3 C152.6 359.5 150.6 357.6 148.8 355.5 C146.9 353.4 145.2 351.1 143.7 348.7 C142.1 346.3 140.7 343.7 139.4 340.9 C138.2 338.1 137 335.1 136 331.8 C135 328.4 134.1 325 133.4 320.9 C132.6 316.9 132 312.8 131.5 307.6 C131 302.3 130.6 300.7 130.4 289.4 C130.1 278.1 130 256.5 130 240 C130 223.5 130.1 201.9 130.4 190.6 C130.6 179.3 131 177.7 131.5 172.4 C132 167.2 132.6 163.1 133.4 159.1 C134.1 155 135 151.6 136 148.2 C137 144.9 138.2 141.9 139.4 139.1 C140.7 136.3 142.1 133.7 143.7 131.3 C145.2 128.9 146.9 126.6 148.8 124.5 C150.6 122.4 152.6 120.5 154.8 118.7 C156.9 116.9 159.3 115.2 161.8 113.7 C164.3 112.1 166.9 110.7 169.9 109.4 C172.8 108.1 175.8 107 179.2 105.9 C182.6 104.8 186.2 103.9 190.1 103 C194.1 102.2 198.3 101.4 203.1 100.8 C207.9 100.2 212.8 99.7 219.1 99.2 C225.4 98.8 227.4 98.5 240.9 98.3 C254.3 98.1 280.3 98 300 98 C319.7 98 345.7 98.1 359.1 98.3 C372.6 98.5 374.6 98.8 380.9 99.2 C387.2 99.7 392.1 100.2 396.9 100.8 C401.7 101.4 405.9 102.2 409.9 103 C413.8 103.9 417.4 104.8 420.8 105.9 C424.2 107 427.2 108.1 430.1 109.4 C433.1 110.7 435.7 112.1 438.2 113.7 C440.7 115.2 443.1 116.9 445.2 118.7 C447.4 120.5 449.4 122.4 451.2 124.5 C453.1 126.6 454.8 128.9 456.3 131.3 C457.9 133.7 459.3 136.3 460.6 139.1 C461.8 141.9 463 144.9 464 148.2 C465 151.6 465.9 155 466.6 159.1 C467.4 163.1 468 167.2 468.5 172.4 C469 177.7 469.4 179.3 469.6 190.6 C469.9 201.9 469.9 231.8 470 240 Z M448 220 C447.9 228.2 447.9 258.1 447.6 269.4 C447.4 280.7 447 282.3 446.5 287.6 C446 292.8 445.4 296.9 444.6 300.9 C443.9 305 443 308.4 442 311.8 C441 315.1 439.8 318.1 438.6 320.9 C437.3 323.7 435.9 326.3 434.3 328.7 C432.8 331.1 431.1 333.4 429.2 335.5 C427.4 337.6 425.4 339.5 423.2 341.3 C421.1 343.1 418.7 344.8 416.2 346.3 C413.7 347.9 411.1 349.3 408.1 350.6 C405.2 351.9 402.2 353 398.8 354.1 C395.4 355.2 391.8 356.1 387.9 357 C383.9 357.8 379.7 358.6 374.9 359.2 C370.1 359.8 365.2 360.3 358.9 360.8 C352.6 361.2 350.6 361.5 337.1 361.7 C323.7 361.9 297.7 362 278 362 C258.3 362 232.3 361.9 218.9 361.7 C205.4 361.5 203.4 361.2 197.1 360.8 C190.8 360.3 185.9 359.8 181.1 359.2 C176.3 358.6 172.1 357.8 168.1 357 C164.2 356.1 160.6 355.2 157.2 354.1 C153.8 353 150.8 351.9 147.9 350.6 C144.9 349.3 142.3 347.9 139.8 346.3 C137.3 344.8 134.9 343.1 132.8 341.3 C130.6 339.5 128.6 337.6 126.8 335.5 C124.9 333.4 123.2 331.1 121.7 328.7 C120.1 326.3 118.7 323.7 117.4 320.9 C116.2 318.1 115 315.1 114 311.8 C113 308.4 112.1 305 111.4 300.9 C110.6 296.9 110 292.8 109.5 287.6 C109 282.3 108.6 280.7 108.4 269.4 C108.1 258.1 108 236.5 108 220 C108 203.5 108.1 181.9 108.4 170.6 C108.6 159.3 109 157.7 109.5 152.4 C110 147.2 110.6 143.1 111.4 139.1 C112.1 135 113 131.6 114 128.2 C115 124.9 116.2 121.9 117.4 119.1 C118.7 116.3 120.1 113.7 121.7 111.3 C123.2 108.9 124.9 106.6 126.8 104.5 C128.6 102.4 130.6 100.5 132.8 98.7 C134.9 96.9 137.3 95.2 139.8 93.7 C142.3 92.1 144.9 90.7 147.9 89.4 C150.8 88.1 153.8 87 157.2 85.9 C160.6 84.8 164.2 83.9 168.1 83 C172.1 82.2 176.3 81.4 181.1 80.8 C185.9 80.2 190.8 79.7 197.1 79.2 C203.4 78.8 205.4 78.5 218.9 78.3 C232.3 78.1 258.3 78 278 78 C297.7 78 323.7 78.1 337.1 78.3 C350.6 78.5 352.6 78.8 358.9 79.2 C365.2 79.7 370.1 80.2 374.9 80.8 C379.7 81.4 383.9 82.2 387.9 83 C391.8 83.9 395.4 84.8 398.8 85.9 C402.2 87 405.2 88.1 408.1 89.4 C411.1 90.7 413.7 92.1 416.2 93.7 C418.7 95.2 421.1 96.9 423.2 98.7 C425.4 100.5 427.4 102.4 429.2 104.5 C431.1 106.6 432.8 108.9 434.3 111.3 C435.9 113.7 437.3 116.3 438.6 119.1 C439.8 121.9 441 124.9 442 128.2 C443 131.6 443.9 135 444.6 139.1 C445.4 143.1 446 147.2 446.5 152.4 C447 157.7 447.4 159.3 447.6 170.6 C447.9 181.9 447.9 211.8 448 220 Z" fill="#B9C8D8" fill-rule="evenodd"/></g><path d="M470 240 C469.9 248.2 469.9 278.1 469.6 289.4 C469.4 300.7 469 302.3 468.5 307.6 C468 312.8 467.4 316.9 466.6 320.9 C465.9 325 465 328.4 464 331.8 C463 335.1 461.8 338.1 460.6 340.9 C459.3 343.7 457.9 346.3 456.3 348.7 C454.8 351.1 453.1 353.4 451.2 355.5 C449.4 357.6 447.4 359.5 445.2 361.3 C443.1 363.1 440.7 364.8 438.2 366.3 C435.7 367.9 433.1 369.3 430.1 370.6 C427.2 371.9 424.2 373 420.8 374.1 C417.4 375.2 413.8 376.1 409.9 377 C405.9 377.8 401.7 378.6 396.9 379.2 C392.1 379.8 387.2 380.3 380.9 380.8 C374.6 381.2 372.6 381.5 359.1 381.7 C345.7 381.9 319.7 382 300 382 C280.3 382 254.3 381.9 240.9 381.7 C227.4 381.5 225.4 381.2 219.1 380.8 C212.8 380.3 207.9 379.8 203.1 379.2 C198.3 378.6 194.1 377.8 190.1 377 C186.2 376.1 182.6 375.2 179.2 374.1 C175.8 373 172.8 371.9 169.9 370.6 C166.9 369.3 164.3 367.9 161.8 366.3 C159.3 364.8 156.9 363.1 154.8 361.3 C152.6 359.5 150.6 357.6 148.8 355.5 C146.9 353.4 145.2 351.1 143.7 348.7 C142.1 346.3 140.7 343.7 139.4 340.9 C138.2 338.1 137 335.1 136 331.8 C135 328.4 134.1 325 133.4 320.9 C132.6 316.9 132 312.8 131.5 307.6 C131 302.3 130.6 300.7 130.4 289.4 C130.1 278.1 130 256.5 130 240 C130 223.5 130.1 201.9 130.4 190.6 C130.6 179.3 131 177.7 131.5 172.4 C132 167.2 132.6 163.1 133.4 159.1 C134.1 155 135 151.6 136 148.2 C137 144.9 138.2 141.9 139.4 139.1 C140.7 136.3 142.1 133.7 143.7 131.3 C145.2 128.9 146.9 126.6 148.8 124.5 C150.6 122.4 152.6 120.5 154.8 118.7 C156.9 116.9 159.3 115.2 161.8 113.7 C164.3 112.1 166.9 110.7 169.9 109.4 C172.8 108.1 175.8 107 179.2 105.9 C182.6 104.8 186.2 103.9 190.1 103 C194.1 102.2 198.3 101.4 203.1 100.8 C207.9 100.2 212.8 99.7 219.1 99.2 C225.4 98.8 227.4 98.5 240.9 98.3 C254.3 98.1 280.3 98 300 98 C319.7 98 345.7 98.1 359.1 98.3 C372.6 98.5 374.6 98.8 380.9 99.2 C387.2 99.7 392.1 100.2 396.9 100.8 C401.7 101.4 405.9 102.2 409.9 103 C413.8 103.9 417.4 104.8 420.8 105.9 C424.2 107 427.2 108.1 430.1 109.4 C433.1 110.7 435.7 112.1 438.2 113.7 C440.7 115.2 443.1 116.9 445.2 118.7 C447.4 120.5 449.4 122.4 451.2 124.5 C453.1 126.6 454.8 128.9 456.3 131.3 C457.9 133.7 459.3 136.3 460.6 139.1 C461.8 141.9 463 144.9 464 148.2 C465 151.6 465.9 155 466.6 159.1 C467.4 163.1 468 167.2 468.5 172.4 C469 177.7 469.4 179.3 469.6 190.6 C469.9 201.9 469.9 231.8 470 240 Z" fill="none" stroke="#0C0D11" stroke-width="6" stroke-linejoin="round" stroke-linecap="round"/><circle cx="155" cy="123" r="6" fill="#B9C8D8" stroke="#0C0D11" stroke-width="2.6"/><path d="M151.6 125 L158.4 121" fill="none" stroke="#0C0D11" stroke-width="2" stroke-linejoin="round" stroke-linecap="round"/><circle cx="445" cy="123" r="6" fill="#B9C8D8" stroke="#0C0D11" stroke-width="2.6"/><path d="M441.6 125 L448.4 121" fill="none" stroke="#0C0D11" stroke-width="2" stroke-linejoin="round" stroke-linecap="round"/><circle cx="155" cy="357" r="6" fill="#B9C8D8" stroke="#0C0D11" stroke-width="2.6"/><path d="M151.6 359 L158.4 355" fill="none" stroke="#0C0D11" stroke-width="2" stroke-linejoin="round" stroke-linecap="round"/><circle cx="445" cy="357" r="6" fill="#B9C8D8" stroke="#0C0D11" stroke-width="2.6"/><path d="M441.6 359 L448.4 355" fill="none" stroke="#0C0D11" stroke-width="2" stroke-linejoin="round" stroke-linecap="round"/><circle cx="392" cy="366" r="5.5" fill="#17C3B2" stroke="#0C0D11" stroke-width="2.6"/><path d="M457 212 L466 210" fill="none" stroke="#0C0D11" stroke-width="3.4" stroke-linejoin="round" stroke-linecap="round"/><path d="M457 227 L466 225" fill="none" stroke="#0C0D11" stroke-width="3.4" stroke-linejoin="round" stroke-linecap="round"/><path d="M457 242 L466 240" fill="none" stroke="#0C0D11" stroke-width="3.4" stroke-linejoin="round" stroke-linecap="round"/><path d="M142.8 274.1 L142.7 276.1 L142.7 278.2 L142.9 280.1 L143.1 281.9 L143.4 283.7 L143.6 285.5 L143.7 287.2 L143.8 288.9 L143.8 290.5 L143.8 292.1 L143.7 293.7 L143.6 295.2 L143.4 296.7 L143.3 298.1 L143.2 299.6 L143.1 301 L143 302.5 L142.8 303.9 L143.2 304.1 L144 302.8 L144.7 301.5 L145.3 300.1 L145.8 298.6 L146.2 297.1 L146.4 295.5 L146.6 293.9 L146.7 292.2 L146.7 290.5 L146.7 288.8 L146.6 287 L146.4 285.2 L146.2 283.4 L146 281.5 L145.6 279.6 L145 277.7 L144.2 275.8 L143.2 273.9 Z" fill="#0B1726"/><path d="M230.1 110.2 L232.5 110.2 L234.9 110.2 L237.3 110 L239.7 109.8 L242.1 109.5 L244.5 109.3 L247 109.2 L249.4 109 L251.8 109 L254.2 109 L256.5 109 L258.8 109 L261.1 109.1 L263.4 109.1 L265.6 109.2 L267.8 109.2 L269.9 109.2 L272 109.2 L272 108.8 L270 108.2 L268 107.6 L265.8 107.2 L263.6 106.8 L261.3 106.5 L258.9 106.4 L256.6 106.3 L254.2 106.3 L251.7 106.3 L249.3 106.3 L246.8 106.5 L244.3 106.6 L241.9 106.8 L239.4 107.1 L237 107.4 L234.6 108 L232.2 108.8 L229.9 109.8 Z" fill="#0B1726"/><clipPath id="plotty25"><path d="M443 234 C442.9 241 442.9 266.5 442.7 276.1 C442.5 285.7 442.2 287.1 441.7 291.6 C441.3 296 440.8 299.5 440.2 303 C439.5 306.4 438.8 309.4 437.9 312.2 C437.1 315 436.1 317.6 435.1 320 C434 322.4 432.8 324.6 431.5 326.6 C430.2 328.7 428.8 330.6 427.2 332.4 C425.7 334.2 424 335.8 422.2 337.4 C420.3 338.9 418.4 340.3 416.3 341.6 C414.2 343 411.9 344.2 409.5 345.3 C407 346.4 404.4 347.4 401.6 348.3 C398.8 349.2 395.8 350 392.4 350.7 C389.1 351.4 385.6 352.1 381.5 352.6 C377.4 353.1 373.3 353.6 368 353.9 C362.7 354.3 361.1 354.6 349.8 354.7 C338.4 354.9 316.6 355 300 355 C283.4 355 261.6 354.9 250.2 354.7 C238.9 354.6 237.3 354.3 232 353.9 C226.7 353.6 222.6 353.1 218.5 352.6 C214.4 352.1 210.9 351.4 207.6 350.7 C204.2 350 201.2 349.2 198.4 348.3 C195.6 347.4 193 346.4 190.5 345.3 C188.1 344.2 185.8 343 183.7 341.6 C181.6 340.3 179.7 338.9 177.8 337.4 C176 335.8 174.3 334.2 172.8 332.4 C171.2 330.6 169.8 328.7 168.5 326.6 C167.2 324.6 166 322.4 164.9 320 C163.9 317.6 162.9 315 162.1 312.2 C161.2 309.4 160.5 306.4 159.8 303 C159.2 299.5 158.7 296 158.3 291.6 C157.8 287.1 157.5 285.7 157.3 276.1 C157.1 266.5 157 248 157 234 C157 220 157.1 201.5 157.3 191.9 C157.5 182.3 157.8 180.9 158.3 176.4 C158.7 172 159.2 168.5 159.8 165 C160.5 161.6 161.2 158.6 162.1 155.8 C162.9 153 163.9 150.4 164.9 148 C166 145.6 167.2 143.4 168.5 141.4 C169.8 139.3 171.2 137.4 172.8 135.6 C174.3 133.8 176 132.2 177.8 130.6 C179.7 129.1 181.6 127.7 183.7 126.4 C185.8 125 188.1 123.8 190.5 122.7 C193 121.6 195.6 120.6 198.4 119.7 C201.2 118.8 204.2 118 207.6 117.3 C210.9 116.6 214.4 115.9 218.5 115.4 C222.6 114.9 226.7 114.4 232 114.1 C237.3 113.7 238.9 113.4 250.2 113.3 C261.6 113.1 283.4 113 300 113 C316.6 113 338.4 113.1 349.8 113.3 C361.1 113.4 362.7 113.7 368 114.1 C373.3 114.4 377.4 114.9 381.5 115.4 C385.6 115.9 389.1 116.6 392.4 117.3 C395.8 118 398.8 118.8 401.6 119.7 C404.4 120.6 407 121.6 409.5 122.7 C411.9 123.8 414.2 125 416.3 126.4 C418.4 127.7 420.3 129.1 422.2 130.6 C424 132.2 425.7 133.8 427.2 135.6 C428.8 137.4 430.2 139.3 431.5 141.4 C432.8 143.4 434 145.6 435.1 148 C436.1 150.4 437.1 153 437.9 155.8 C438.8 158.6 439.5 161.6 440.2 165 C440.8 168.5 441.3 172 441.7 176.4 C442.2 180.9 442.5 182.3 442.7 191.9 C442.9 201.5 442.9 227 443 234 Z"/></clipPath><path d="M443 234 C442.9 241 442.9 266.5 442.7 276.1 C442.5 285.7 442.2 287.1 441.7 291.6 C441.3 296 440.8 299.5 440.2 303 C439.5 306.4 438.8 309.4 437.9 312.2 C437.1 315 436.1 317.6 435.1 320 C434 322.4 432.8 324.6 431.5 326.6 C430.2 328.7 428.8 330.6 427.2 332.4 C425.7 334.2 424 335.8 422.2 337.4 C420.3 338.9 418.4 340.3 416.3 341.6 C414.2 343 411.9 344.2 409.5 345.3 C407 346.4 404.4 347.4 401.6 348.3 C398.8 349.2 395.8 350 392.4 350.7 C389.1 351.4 385.6 352.1 381.5 352.6 C377.4 353.1 373.3 353.6 368 353.9 C362.7 354.3 361.1 354.6 349.8 354.7 C338.4 354.9 316.6 355 300 355 C283.4 355 261.6 354.9 250.2 354.7 C238.9 354.6 237.3 354.3 232 353.9 C226.7 353.6 222.6 353.1 218.5 352.6 C214.4 352.1 210.9 351.4 207.6 350.7 C204.2 350 201.2 349.2 198.4 348.3 C195.6 347.4 193 346.4 190.5 345.3 C188.1 344.2 185.8 343 183.7 341.6 C181.6 340.3 179.7 338.9 177.8 337.4 C176 335.8 174.3 334.2 172.8 332.4 C171.2 330.6 169.8 328.7 168.5 326.6 C167.2 324.6 166 322.4 164.9 320 C163.9 317.6 162.9 315 162.1 312.2 C161.2 309.4 160.5 306.4 159.8 303 C159.2 299.5 158.7 296 158.3 291.6 C157.8 287.1 157.5 285.7 157.3 276.1 C157.1 266.5 157 248 157 234 C157 220 157.1 201.5 157.3 191.9 C157.5 182.3 157.8 180.9 158.3 176.4 C158.7 172 159.2 168.5 159.8 165 C160.5 161.6 161.2 158.6 162.1 155.8 C162.9 153 163.9 150.4 164.9 148 C166 145.6 167.2 143.4 168.5 141.4 C169.8 139.3 171.2 137.4 172.8 135.6 C174.3 133.8 176 132.2 177.8 130.6 C179.7 129.1 181.6 127.7 183.7 126.4 C185.8 125 188.1 123.8 190.5 122.7 C193 121.6 195.6 120.6 198.4 119.7 C201.2 118.8 204.2 118 207.6 117.3 C210.9 116.6 214.4 115.9 218.5 115.4 C222.6 114.9 226.7 114.4 232 114.1 C237.3 113.7 238.9 113.4 250.2 113.3 C261.6 113.1 283.4 113 300 113 C316.6 113 338.4 113.1 349.8 113.3 C361.1 113.4 362.7 113.7 368 114.1 C373.3 114.4 377.4 114.9 381.5 115.4 C385.6 115.9 389.1 116.6 392.4 117.3 C395.8 118 398.8 118.8 401.6 119.7 C404.4 120.6 407 121.6 409.5 122.7 C411.9 123.8 414.2 125 416.3 126.4 C418.4 127.7 420.3 129.1 422.2 130.6 C424 132.2 425.7 133.8 427.2 135.6 C428.8 137.4 430.2 139.3 431.5 141.4 C432.8 143.4 434 145.6 435.1 148 C436.1 150.4 437.1 153 437.9 155.8 C438.8 158.6 439.5 161.6 440.2 165 C440.8 168.5 441.3 172 441.7 176.4 C442.2 180.9 442.5 182.3 442.7 191.9 C442.9 201.5 442.9 227 443 234 Z" fill="#7FD8CF"/><g clip-path="url(#plotty25)"><path d="M443 234 C442.9 241 442.9 266.5 442.7 276.1 C442.5 285.7 442.2 287.1 441.7 291.6 C441.3 296 440.8 299.5 440.2 303 C439.5 306.4 438.8 309.4 437.9 312.2 C437.1 315 436.1 317.6 435.1 320 C434 322.4 432.8 324.6 431.5 326.6 C430.2 328.7 428.8 330.6 427.2 332.4 C425.7 334.2 424 335.8 422.2 337.4 C420.3 338.9 418.4 340.3 416.3 341.6 C414.2 343 411.9 344.2 409.5 345.3 C407 346.4 404.4 347.4 401.6 348.3 C398.8 349.2 395.8 350 392.4 350.7 C389.1 351.4 385.6 352.1 381.5 352.6 C377.4 353.1 373.3 353.6 368 353.9 C362.7 354.3 361.1 354.6 349.8 354.7 C338.4 354.9 316.6 355 300 355 C283.4 355 261.6 354.9 250.2 354.7 C238.9 354.6 237.3 354.3 232 353.9 C226.7 353.6 222.6 353.1 218.5 352.6 C214.4 352.1 210.9 351.4 207.6 350.7 C204.2 350 201.2 349.2 198.4 348.3 C195.6 347.4 193 346.4 190.5 345.3 C188.1 344.2 185.8 343 183.7 341.6 C181.6 340.3 179.7 338.9 177.8 337.4 C176 335.8 174.3 334.2 172.8 332.4 C171.2 330.6 169.8 328.7 168.5 326.6 C167.2 324.6 166 322.4 164.9 320 C163.9 317.6 162.9 315 162.1 312.2 C161.2 309.4 160.5 306.4 159.8 303 C159.2 299.5 158.7 296 158.3 291.6 C157.8 287.1 157.5 285.7 157.3 276.1 C157.1 266.5 157 248 157 234 C157 220 157.1 201.5 157.3 191.9 C157.5 182.3 157.8 180.9 158.3 176.4 C158.7 172 159.2 168.5 159.8 165 C160.5 161.6 161.2 158.6 162.1 155.8 C162.9 153 163.9 150.4 164.9 148 C166 145.6 167.2 143.4 168.5 141.4 C169.8 139.3 171.2 137.4 172.8 135.6 C174.3 133.8 176 132.2 177.8 130.6 C179.7 129.1 181.6 127.7 183.7 126.4 C185.8 125 188.1 123.8 190.5 122.7 C193 121.6 195.6 120.6 198.4 119.7 C201.2 118.8 204.2 118 207.6 117.3 C210.9 116.6 214.4 115.9 218.5 115.4 C222.6 114.9 226.7 114.4 232 114.1 C237.3 113.7 238.9 113.4 250.2 113.3 C261.6 113.1 283.4 113 300 113 C316.6 113 338.4 113.1 349.8 113.3 C361.1 113.4 362.7 113.7 368 114.1 C373.3 114.4 377.4 114.9 381.5 115.4 C385.6 115.9 389.1 116.6 392.4 117.3 C395.8 118 398.8 118.8 401.6 119.7 C404.4 120.6 407 121.6 409.5 122.7 C411.9 123.8 414.2 125 416.3 126.4 C418.4 127.7 420.3 129.1 422.2 130.6 C424 132.2 425.7 133.8 427.2 135.6 C428.8 137.4 430.2 139.3 431.5 141.4 C432.8 143.4 434 145.6 435.1 148 C436.1 150.4 437.1 153 437.9 155.8 C438.8 158.6 439.5 161.6 440.2 165 C440.8 168.5 441.3 172 441.7 176.4 C442.2 180.9 442.5 182.3 442.7 191.9 C442.9 201.5 442.9 227 443 234 Z M436 227 C435.9 234 435.9 259.5 435.7 269.1 C435.5 278.7 435.2 280.1 434.7 284.6 C434.3 289 433.8 292.5 433.2 296 C432.5 299.4 431.8 302.4 430.9 305.2 C430.1 308 429.1 310.6 428.1 313 C427 315.4 425.8 317.6 424.5 319.6 C423.2 321.7 421.8 323.6 420.2 325.4 C418.7 327.2 417 328.8 415.2 330.4 C413.3 331.9 411.4 333.3 409.3 334.6 C407.2 336 404.9 337.2 402.5 338.3 C400 339.4 397.4 340.4 394.6 341.3 C391.8 342.2 388.8 343 385.4 343.7 C382.1 344.4 378.6 345.1 374.5 345.6 C370.4 346.1 366.3 346.6 361 346.9 C355.7 347.3 354.1 347.6 342.8 347.7 C331.4 347.9 309.6 348 293 348 C276.4 348 254.6 347.9 243.2 347.7 C231.9 347.6 230.3 347.3 225 346.9 C219.7 346.6 215.6 346.1 211.5 345.6 C207.4 345.1 203.9 344.4 200.6 343.7 C197.2 343 194.2 342.2 191.4 341.3 C188.6 340.4 186 339.4 183.5 338.3 C181.1 337.2 178.8 336 176.7 334.6 C174.6 333.3 172.7 331.9 170.8 330.4 C169 328.8 167.3 327.2 165.8 325.4 C164.2 323.6 162.8 321.7 161.5 319.6 C160.2 317.6 159 315.4 157.9 313 C156.9 310.6 155.9 308 155.1 305.2 C154.2 302.4 153.5 299.4 152.8 296 C152.2 292.5 151.7 289 151.3 284.6 C150.8 280.1 150.5 278.7 150.3 269.1 C150.1 259.5 150 241 150 227 C150 213 150.1 194.5 150.3 184.9 C150.5 175.3 150.8 173.9 151.3 169.4 C151.7 165 152.2 161.5 152.8 158 C153.5 154.6 154.2 151.6 155.1 148.8 C155.9 146 156.9 143.4 157.9 141 C159 138.6 160.2 136.4 161.5 134.4 C162.8 132.3 164.2 130.4 165.8 128.6 C167.3 126.8 169 125.2 170.8 123.6 C172.7 122.1 174.6 120.7 176.7 119.4 C178.8 118 181.1 116.8 183.5 115.7 C186 114.6 188.6 113.6 191.4 112.7 C194.2 111.8 197.2 111 200.6 110.3 C203.9 109.6 207.4 108.9 211.5 108.4 C215.6 107.9 219.7 107.4 225 107.1 C230.3 106.7 231.9 106.4 243.2 106.3 C254.6 106.1 276.4 106 293 106 C309.6 106 331.4 106.1 342.8 106.3 C354.1 106.4 355.7 106.7 361 107.1 C366.3 107.4 370.4 107.9 374.5 108.4 C378.6 108.9 382.1 109.6 385.4 110.3 C388.8 111 391.8 111.8 394.6 112.7 C397.4 113.6 400 114.6 402.5 115.7 C404.9 116.8 407.2 118 409.3 119.4 C411.4 120.7 413.3 122.1 415.2 123.6 C417 125.2 418.7 126.8 420.2 128.6 C421.8 130.4 423.2 132.3 424.5 134.4 C425.8 136.4 427 138.6 428.1 141 C429.1 143.4 430.1 146 430.9 148.8 C431.8 151.6 432.5 154.6 433.2 158 C433.8 161.5 434.3 165 434.7 169.4 C435.2 173.9 435.5 175.3 435.7 184.9 C435.9 194.5 435.9 220 436 227 Z" fill="#47AFA4" fill-rule="evenodd"/></g><path d="M443 234 C442.9 241 442.9 266.5 442.7 276.1 C442.5 285.7 442.2 287.1 441.7 291.6 C441.3 296 440.8 299.5 440.2 303 C439.5 306.4 438.8 309.4 437.9 312.2 C437.1 315 436.1 317.6 435.1 320 C434 322.4 432.8 324.6 431.5 326.6 C430.2 328.7 428.8 330.6 427.2 332.4 C425.7 334.2 424 335.8 422.2 337.4 C420.3 338.9 418.4 340.3 416.3 341.6 C414.2 343 411.9 344.2 409.5 345.3 C407 346.4 404.4 347.4 401.6 348.3 C398.8 349.2 395.8 350 392.4 350.7 C389.1 351.4 385.6 352.1 381.5 352.6 C377.4 353.1 373.3 353.6 368 353.9 C362.7 354.3 361.1 354.6 349.8 354.7 C338.4 354.9 316.6 355 300 355 C283.4 355 261.6 354.9 250.2 354.7 C238.9 354.6 237.3 354.3 232 353.9 C226.7 353.6 222.6 353.1 218.5 352.6 C214.4 352.1 210.9 351.4 207.6 350.7 C204.2 350 201.2 349.2 198.4 348.3 C195.6 347.4 193 346.4 190.5 345.3 C188.1 344.2 185.8 343 183.7 341.6 C181.6 340.3 179.7 338.9 177.8 337.4 C176 335.8 174.3 334.2 172.8 332.4 C171.2 330.6 169.8 328.7 168.5 326.6 C167.2 324.6 166 322.4 164.9 320 C163.9 317.6 162.9 315 162.1 312.2 C161.2 309.4 160.5 306.4 159.8 303 C159.2 299.5 158.7 296 158.3 291.6 C157.8 287.1 157.5 285.7 157.3 276.1 C157.1 266.5 157 248 157 234 C157 220 157.1 201.5 157.3 191.9 C157.5 182.3 157.8 180.9 158.3 176.4 C158.7 172 159.2 168.5 159.8 165 C160.5 161.6 161.2 158.6 162.1 155.8 C162.9 153 163.9 150.4 164.9 148 C166 145.6 167.2 143.4 168.5 141.4 C169.8 139.3 171.2 137.4 172.8 135.6 C174.3 133.8 176 132.2 177.8 130.6 C179.7 129.1 181.6 127.7 183.7 126.4 C185.8 125 188.1 123.8 190.5 122.7 C193 121.6 195.6 120.6 198.4 119.7 C201.2 118.8 204.2 118 207.6 117.3 C210.9 116.6 214.4 115.9 218.5 115.4 C222.6 114.9 226.7 114.4 232 114.1 C237.3 113.7 238.9 113.4 250.2 113.3 C261.6 113.1 283.4 113 300 113 C316.6 113 338.4 113.1 349.8 113.3 C361.1 113.4 362.7 113.7 368 114.1 C373.3 114.4 377.4 114.9 381.5 115.4 C385.6 115.9 389.1 116.6 392.4 117.3 C395.8 118 398.8 118.8 401.6 119.7 C404.4 120.6 407 121.6 409.5 122.7 C411.9 123.8 414.2 125 416.3 126.4 C418.4 127.7 420.3 129.1 422.2 130.6 C424 132.2 425.7 133.8 427.2 135.6 C428.8 137.4 430.2 139.3 431.5 141.4 C432.8 143.4 434 145.6 435.1 148 C436.1 150.4 437.1 153 437.9 155.8 C438.8 158.6 439.5 161.6 440.2 165 C440.8 168.5 441.3 172 441.7 176.4 C442.2 180.9 442.5 182.3 442.7 191.9 C442.9 201.5 442.9 227 443 234 Z" fill="none" stroke="#0C0D11" stroke-width="5" stroke-linejoin="round" stroke-linecap="round"/><clipPath id="plotty26"><path d="M432 234 C432 240.4 431.9 263.6 431.7 272.3 C431.5 281 431.2 282.3 430.8 286.3 C430.5 290.4 430 293.6 429.4 296.7 C428.8 299.8 428.1 302.5 427.3 305.1 C426.5 307.7 425.7 310 424.7 312.2 C423.7 314.3 422.6 316.3 421.4 318.2 C420.2 320.1 418.9 321.8 417.4 323.4 C416 325.1 414.4 326.6 412.8 328 C411.1 329.4 409.3 330.7 407.3 331.9 C405.4 333 403.3 334.1 401.1 335.1 C398.8 336.2 396.4 337.1 393.8 337.9 C391.2 338.7 388.4 339.5 385.3 340.1 C382.2 340.8 379 341.3 375.2 341.8 C371.5 342.3 367.7 342.7 362.8 343 C357.9 343.4 356.4 343.6 345.9 343.8 C335.5 343.9 315.3 344 300 344 C284.7 344 264.5 343.9 254.1 343.8 C243.6 343.6 242.1 343.4 237.2 343 C232.3 342.7 228.5 342.3 224.8 341.8 C221 341.3 217.8 340.8 214.7 340.1 C211.6 339.5 208.8 338.7 206.2 337.9 C203.6 337.1 201.2 336.2 198.9 335.1 C196.7 334.1 194.6 333 192.7 331.9 C190.7 330.7 188.9 329.4 187.2 328 C185.6 326.6 184 325.1 182.6 323.4 C181.1 321.8 179.8 320.1 178.6 318.2 C177.4 316.3 176.3 314.3 175.3 312.2 C174.3 310 173.5 307.7 172.7 305.1 C171.9 302.5 171.2 299.8 170.6 296.7 C170 293.6 169.5 290.4 169.2 286.3 C168.8 282.3 168.5 281 168.3 272.3 C168.1 263.6 168 246.8 168 234 C168 221.2 168.1 204.4 168.3 195.7 C168.5 187 168.8 185.7 169.2 181.7 C169.5 177.6 170 174.4 170.6 171.3 C171.2 168.2 171.9 165.5 172.7 162.9 C173.5 160.3 174.3 158 175.3 155.8 C176.3 153.7 177.4 151.7 178.6 149.8 C179.8 147.9 181.1 146.2 182.6 144.6 C184 142.9 185.6 141.4 187.2 140 C188.9 138.6 190.7 137.3 192.7 136.1 C194.6 135 196.7 133.9 198.9 132.9 C201.2 131.8 203.6 130.9 206.2 130.1 C208.8 129.3 211.6 128.5 214.7 127.9 C217.8 127.2 221 126.7 224.8 126.2 C228.5 125.7 232.3 125.3 237.2 125 C242.1 124.6 243.6 124.4 254.1 124.2 C264.5 124.1 284.7 124 300 124 C315.3 124 335.5 124.1 345.9 124.2 C356.4 124.4 357.9 124.6 362.8 125 C367.7 125.3 371.5 125.7 375.2 126.2 C379 126.7 382.2 127.2 385.3 127.9 C388.4 128.5 391.2 129.3 393.8 130.1 C396.4 130.9 398.8 131.8 401.1 132.9 C403.3 133.9 405.4 135 407.3 136.1 C409.3 137.3 411.1 138.6 412.8 140 C414.4 141.4 416 142.9 417.4 144.6 C418.9 146.2 420.2 147.9 421.4 149.8 C422.6 151.7 423.7 153.7 424.7 155.8 C425.7 158 426.5 160.3 427.3 162.9 C428.1 165.5 428.8 168.2 429.4 171.3 C430 174.4 430.5 177.6 430.8 181.7 C431.2 185.7 431.5 187 431.7 195.7 C431.9 204.4 432 227.6 432 234 Z"/></clipPath><path d="M432 234 C432 240.4 431.9 263.6 431.7 272.3 C431.5 281 431.2 282.3 430.8 286.3 C430.5 290.4 430 293.6 429.4 296.7 C428.8 299.8 428.1 302.5 427.3 305.1 C426.5 307.7 425.7 310 424.7 312.2 C423.7 314.3 422.6 316.3 421.4 318.2 C420.2 320.1 418.9 321.8 417.4 323.4 C416 325.1 414.4 326.6 412.8 328 C411.1 329.4 409.3 330.7 407.3 331.9 C405.4 333 403.3 334.1 401.1 335.1 C398.8 336.2 396.4 337.1 393.8 337.9 C391.2 338.7 388.4 339.5 385.3 340.1 C382.2 340.8 379 341.3 375.2 341.8 C371.5 342.3 367.7 342.7 362.8 343 C357.9 343.4 356.4 343.6 345.9 343.8 C335.5 343.9 315.3 344 300 344 C284.7 344 264.5 343.9 254.1 343.8 C243.6 343.6 242.1 343.4 237.2 343 C232.3 342.7 228.5 342.3 224.8 341.8 C221 341.3 217.8 340.8 214.7 340.1 C211.6 339.5 208.8 338.7 206.2 337.9 C203.6 337.1 201.2 336.2 198.9 335.1 C196.7 334.1 194.6 333 192.7 331.9 C190.7 330.7 188.9 329.4 187.2 328 C185.6 326.6 184 325.1 182.6 323.4 C181.1 321.8 179.8 320.1 178.6 318.2 C177.4 316.3 176.3 314.3 175.3 312.2 C174.3 310 173.5 307.7 172.7 305.1 C171.9 302.5 171.2 299.8 170.6 296.7 C170 293.6 169.5 290.4 169.2 286.3 C168.8 282.3 168.5 281 168.3 272.3 C168.1 263.6 168 246.8 168 234 C168 221.2 168.1 204.4 168.3 195.7 C168.5 187 168.8 185.7 169.2 181.7 C169.5 177.6 170 174.4 170.6 171.3 C171.2 168.2 171.9 165.5 172.7 162.9 C173.5 160.3 174.3 158 175.3 155.8 C176.3 153.7 177.4 151.7 178.6 149.8 C179.8 147.9 181.1 146.2 182.6 144.6 C184 142.9 185.6 141.4 187.2 140 C188.9 138.6 190.7 137.3 192.7 136.1 C194.6 135 196.7 133.9 198.9 132.9 C201.2 131.8 203.6 130.9 206.2 130.1 C208.8 129.3 211.6 128.5 214.7 127.9 C217.8 127.2 221 126.7 224.8 126.2 C228.5 125.7 232.3 125.3 237.2 125 C242.1 124.6 243.6 124.4 254.1 124.2 C264.5 124.1 284.7 124 300 124 C315.3 124 335.5 124.1 345.9 124.2 C356.4 124.4 357.9 124.6 362.8 125 C367.7 125.3 371.5 125.7 375.2 126.2 C379 126.7 382.2 127.2 385.3 127.9 C388.4 128.5 391.2 129.3 393.8 130.1 C396.4 130.9 398.8 131.8 401.1 132.9 C403.3 133.9 405.4 135 407.3 136.1 C409.3 137.3 411.1 138.6 412.8 140 C414.4 141.4 416 142.9 417.4 144.6 C418.9 146.2 420.2 147.9 421.4 149.8 C422.6 151.7 423.7 153.7 424.7 155.8 C425.7 158 426.5 160.3 427.3 162.9 C428.1 165.5 428.8 168.2 429.4 171.3 C430 174.4 430.5 177.6 430.8 181.7 C431.2 185.7 431.5 187 431.7 195.7 C431.9 204.4 432 227.6 432 234 Z" fill="#1C426D"/><g clip-path="url(#plotty26)"><path d="M418.8 114 L452 114 L452 364 L220.8 364 Z" fill="#0D2642"/><path d="M234 169.4 V293.8 H386.1" fill="none" stroke="#35679A" stroke-width="8" stroke-linejoin="round" stroke-linecap="round"/><g fill="#24507E" opacity=".55"><rect x="244.4" y="166.6" width="9.5" height="9.5" rx="2.6"/><rect x="256.7" y="166.6" width="9.5" height="9.5" rx="2.6"/><rect x="268.9" y="166.6" width="9.5" height="9.5" rx="2.6"/><rect x="281.2" y="166.6" width="9.5" height="9.5" rx="2.6"/><rect x="293.4" y="166.6" width="9.5" height="9.5" rx="2.6"/><rect x="305.7" y="166.6" width="9.5" height="9.5" rx="2.6"/><rect x="317.9" y="166.6" width="9.5" height="9.5" rx="2.6"/><rect x="330.2" y="166.6" width="9.5" height="9.5" rx="2.6"/><rect x="342.5" y="166.6" width="9.5" height="9.5" rx="2.6"/><rect x="354.7" y="166.6" width="9.5" height="9.5" rx="2.6"/><rect x="367" y="166.6" width="9.5" height="9.5" rx="2.6"/><rect x="379.2" y="166.6" width="9.5" height="9.5" rx="2.6"/><rect x="244.4" y="178.4" width="9.5" height="9.5" rx="2.6"/><rect x="256.7" y="178.4" width="9.5" height="9.5" rx="2.6"/><rect x="293.4" y="178.4" width="9.5" height="9.5" rx="2.6"/><rect x="305.7" y="178.4" width="9.5" height="9.5" rx="2.6"/><rect x="317.9" y="178.4" width="9.5" height="9.5" rx="2.6"/><rect x="330.2" y="178.4" width="9.5" height="9.5" rx="2.6"/><rect x="367" y="178.4" width="9.5" height="9.5" rx="2.6"/><rect x="379.2" y="178.4" width="9.5" height="9.5" rx="2.6"/><rect x="244.4" y="190.3" width="9.5" height="9.5" rx="2.6"/><rect x="256.7" y="190.3" width="9.5" height="9.5" rx="2.6"/><rect x="293.4" y="190.3" width="9.5" height="9.5" rx="2.6"/><rect x="305.7" y="190.3" width="9.5" height="9.5" rx="2.6"/><rect x="317.9" y="190.3" width="9.5" height="9.5" rx="2.6"/><rect x="330.2" y="190.3" width="9.5" height="9.5" rx="2.6"/><rect x="367" y="190.3" width="9.5" height="9.5" rx="2.6"/><rect x="379.2" y="190.3" width="9.5" height="9.5" rx="2.6"/><rect x="244.4" y="202.1" width="9.5" height="9.5" rx="2.6"/><rect x="256.7" y="202.1" width="9.5" height="9.5" rx="2.6"/><rect x="293.4" y="202.1" width="9.5" height="9.5" rx="2.6"/><rect x="305.7" y="202.1" width="9.5" height="9.5" rx="2.6"/><rect x="317.9" y="202.1" width="9.5" height="9.5" rx="2.6"/><rect x="330.2" y="202.1" width="9.5" height="9.5" rx="2.6"/><rect x="367" y="202.1" width="9.5" height="9.5" rx="2.6"/><rect x="379.2" y="202.1" width="9.5" height="9.5" rx="2.6"/><rect x="244.4" y="213.9" width="9.5" height="9.5" rx="2.6"/><rect x="256.7" y="213.9" width="9.5" height="9.5" rx="2.6"/><rect x="268.9" y="213.9" width="9.5" height="9.5" rx="2.6"/><rect x="281.2" y="213.9" width="9.5" height="9.5" rx="2.6"/><rect x="293.4" y="213.9" width="9.5" height="9.5" rx="2.6"/><rect x="305.7" y="213.9" width="9.5" height="9.5" rx="2.6"/><rect x="317.9" y="213.9" width="9.5" height="9.5" rx="2.6"/><rect x="330.2" y="213.9" width="9.5" height="9.5" rx="2.6"/><rect x="342.5" y="213.9" width="9.5" height="9.5" rx="2.6"/><rect x="354.7" y="213.9" width="9.5" height="9.5" rx="2.6"/><rect x="367" y="213.9" width="9.5" height="9.5" rx="2.6"/><rect x="379.2" y="213.9" width="9.5" height="9.5" rx="2.6"/><rect x="244.4" y="225.8" width="9.5" height="9.5" rx="2.6"/><rect x="256.7" y="225.8" width="9.5" height="9.5" rx="2.6"/><rect x="268.9" y="225.8" width="9.5" height="9.5" rx="2.6"/><rect x="281.2" y="225.8" width="9.5" height="9.5" rx="2.6"/><rect x="293.4" y="225.8" width="9.5" height="9.5" rx="2.6"/><rect x="305.7" y="225.8" width="9.5" height="9.5" rx="2.6"/><rect x="317.9" y="225.8" width="9.5" height="9.5" rx="2.6"/><rect x="330.2" y="225.8" width="9.5" height="9.5" rx="2.6"/><rect x="342.5" y="225.8" width="9.5" height="9.5" rx="2.6"/><rect x="354.7" y="225.8" width="9.5" height="9.5" rx="2.6"/><rect x="379.2" y="225.8" width="9.5" height="9.5" rx="2.6"/><rect x="244.4" y="237.6" width="9.5" height="9.5" rx="2.6"/><rect x="268.9" y="237.6" width="9.5" height="9.5" rx="2.6"/><rect x="281.2" y="237.6" width="9.5" height="9.5" rx="2.6"/><rect x="293.4" y="237.6" width="9.5" height="9.5" rx="2.6"/><rect x="305.7" y="237.6" width="9.5" height="9.5" rx="2.6"/><rect x="317.9" y="237.6" width="9.5" height="9.5" rx="2.6"/><rect x="330.2" y="237.6" width="9.5" height="9.5" rx="2.6"/><rect x="342.5" y="237.6" width="9.5" height="9.5" rx="2.6"/><rect x="379.2" y="237.6" width="9.5" height="9.5" rx="2.6"/><rect x="244.4" y="249.5" width="9.5" height="9.5" rx="2.6"/><rect x="367" y="249.5" width="9.5" height="9.5" rx="2.6"/><rect x="379.2" y="249.5" width="9.5" height="9.5" rx="2.6"/><rect x="244.4" y="261.3" width="9.5" height="9.5" rx="2.6"/><rect x="256.7" y="261.3" width="9.5" height="9.5" rx="2.6"/><rect x="354.7" y="261.3" width="9.5" height="9.5" rx="2.6"/><rect x="367" y="261.3" width="9.5" height="9.5" rx="2.6"/><rect x="379.2" y="261.3" width="9.5" height="9.5" rx="2.6"/><rect x="244.4" y="273.1" width="9.5" height="9.5" rx="2.6"/><rect x="256.7" y="273.1" width="9.5" height="9.5" rx="2.6"/><rect x="268.9" y="273.1" width="9.5" height="9.5" rx="2.6"/><rect x="330.2" y="273.1" width="9.5" height="9.5" rx="2.6"/><rect x="342.5" y="273.1" width="9.5" height="9.5" rx="2.6"/><rect x="354.7" y="273.1" width="9.5" height="9.5" rx="2.6"/><rect x="367" y="273.1" width="9.5" height="9.5" rx="2.6"/><rect x="379.2" y="273.1" width="9.5" height="9.5" rx="2.6"/></g><g fill="#17C3B2" filter="url(#plotty0)" opacity=".9"><rect x="281.2" y="178.4" width="9.5" height="9.5" rx="2.6"/><rect x="354.7" y="178.4" width="9.5" height="9.5" rx="2.6"/><rect x="268.9" y="190.3" width="9.5" height="9.5" rx="2.6"/><rect x="281.2" y="190.3" width="9.5" height="9.5" rx="2.6"/><rect x="342.5" y="190.3" width="9.5" height="9.5" rx="2.6"/><rect x="354.7" y="190.3" width="9.5" height="9.5" rx="2.6"/><rect x="268.9" y="202.1" width="9.5" height="9.5" rx="2.6"/><rect x="281.2" y="202.1" width="9.5" height="9.5" rx="2.6"/><rect x="342.5" y="202.1" width="9.5" height="9.5" rx="2.6"/><rect x="354.7" y="202.1" width="9.5" height="9.5" rx="2.6"/><rect x="367" y="225.8" width="9.5" height="9.5" rx="2.6"/><rect x="256.7" y="237.6" width="9.5" height="9.5" rx="2.6"/><rect x="354.7" y="237.6" width="9.5" height="9.5" rx="2.6"/><rect x="367" y="237.6" width="9.5" height="9.5" rx="2.6"/><rect x="256.7" y="249.5" width="9.5" height="9.5" rx="2.6"/><rect x="268.9" y="249.5" width="9.5" height="9.5" rx="2.6"/><rect x="281.2" y="249.5" width="9.5" height="9.5" rx="2.6"/><rect x="293.4" y="249.5" width="9.5" height="9.5" rx="2.6"/><rect x="305.7" y="249.5" width="9.5" height="9.5" rx="2.6"/><rect x="317.9" y="249.5" width="9.5" height="9.5" rx="2.6"/><rect x="330.2" y="249.5" width="9.5" height="9.5" rx="2.6"/><rect x="342.5" y="249.5" width="9.5" height="9.5" rx="2.6"/><rect x="354.7" y="249.5" width="9.5" height="9.5" rx="2.6"/><rect x="268.9" y="261.3" width="9.5" height="9.5" rx="2.6"/><rect x="281.2" y="261.3" width="9.5" height="9.5" rx="2.6"/><rect x="293.4" y="261.3" width="9.5" height="9.5" rx="2.6"/><rect x="305.7" y="261.3" width="9.5" height="9.5" rx="2.6"/><rect x="317.9" y="261.3" width="9.5" height="9.5" rx="2.6"/><rect x="330.2" y="261.3" width="9.5" height="9.5" rx="2.6"/><rect x="342.5" y="261.3" width="9.5" height="9.5" rx="2.6"/><rect x="281.2" y="273.1" width="9.5" height="9.5" rx="2.6"/><rect x="293.4" y="273.1" width="9.5" height="9.5" rx="2.6"/><rect x="305.7" y="273.1" width="9.5" height="9.5" rx="2.6"/><rect x="317.9" y="273.1" width="9.5" height="9.5" rx="2.6"/><rect x="268.9" y="178.4" width="9.5" height="9.5" rx="2.6"/><rect x="342.5" y="178.4" width="9.5" height="9.5" rx="2.6"/></g><g fill="#17C3B2"><rect x="281.2" y="178.4" width="9.5" height="9.5" rx="2.6"/><rect x="354.7" y="178.4" width="9.5" height="9.5" rx="2.6"/><rect x="268.9" y="190.3" width="9.5" height="9.5" rx="2.6"/><rect x="281.2" y="190.3" width="9.5" height="9.5" rx="2.6"/><rect x="342.5" y="190.3" width="9.5" height="9.5" rx="2.6"/><rect x="354.7" y="190.3" width="9.5" height="9.5" rx="2.6"/><rect x="268.9" y="202.1" width="9.5" height="9.5" rx="2.6"/><rect x="281.2" y="202.1" width="9.5" height="9.5" rx="2.6"/><rect x="342.5" y="202.1" width="9.5" height="9.5" rx="2.6"/><rect x="354.7" y="202.1" width="9.5" height="9.5" rx="2.6"/><rect x="367" y="225.8" width="9.5" height="9.5" rx="2.6"/><rect x="256.7" y="237.6" width="9.5" height="9.5" rx="2.6"/><rect x="354.7" y="237.6" width="9.5" height="9.5" rx="2.6"/><rect x="367" y="237.6" width="9.5" height="9.5" rx="2.6"/><rect x="256.7" y="249.5" width="9.5" height="9.5" rx="2.6"/><rect x="268.9" y="249.5" width="9.5" height="9.5" rx="2.6"/><rect x="281.2" y="249.5" width="9.5" height="9.5" rx="2.6"/><rect x="293.4" y="249.5" width="9.5" height="9.5" rx="2.6"/><rect x="305.7" y="249.5" width="9.5" height="9.5" rx="2.6"/><rect x="317.9" y="249.5" width="9.5" height="9.5" rx="2.6"/><rect x="330.2" y="249.5" width="9.5" height="9.5" rx="2.6"/><rect x="342.5" y="249.5" width="9.5" height="9.5" rx="2.6"/><rect x="354.7" y="249.5" width="9.5" height="9.5" rx="2.6"/><rect x="268.9" y="261.3" width="9.5" height="9.5" rx="2.6"/><rect x="281.2" y="261.3" width="9.5" height="9.5" rx="2.6"/><rect x="293.4" y="261.3" width="9.5" height="9.5" rx="2.6"/><rect x="305.7" y="261.3" width="9.5" height="9.5" rx="2.6"/><rect x="317.9" y="261.3" width="9.5" height="9.5" rx="2.6"/><rect x="330.2" y="261.3" width="9.5" height="9.5" rx="2.6"/><rect x="342.5" y="261.3" width="9.5" height="9.5" rx="2.6"/><rect x="281.2" y="273.1" width="9.5" height="9.5" rx="2.6"/><rect x="293.4" y="273.1" width="9.5" height="9.5" rx="2.6"/><rect x="305.7" y="273.1" width="9.5" height="9.5" rx="2.6"/><rect x="317.9" y="273.1" width="9.5" height="9.5" rx="2.6"/></g><g fill="#E9FFFC"><rect x="268.9" y="178.4" width="9.5" height="9.5" rx="2.6"/><rect x="342.5" y="178.4" width="9.5" height="9.5" rx="2.6"/></g><path d="M158 204 L270 114 L296 114 L158 236 Z" fill="#FFFFFF" opacity=".10"/><path d="M158 256 L314 114 L330 114 L158 276 Z" fill="#FFFFFF" opacity=".07"/></g><path d="M432 234 C432 240.4 431.9 263.6 431.7 272.3 C431.5 281 431.2 282.3 430.8 286.3 C430.5 290.4 430 293.6 429.4 296.7 C428.8 299.8 428.1 302.5 427.3 305.1 C426.5 307.7 425.7 310 424.7 312.2 C423.7 314.3 422.6 316.3 421.4 318.2 C420.2 320.1 418.9 321.8 417.4 323.4 C416 325.1 414.4 326.6 412.8 328 C411.1 329.4 409.3 330.7 407.3 331.9 C405.4 333 403.3 334.1 401.1 335.1 C398.8 336.2 396.4 337.1 393.8 337.9 C391.2 338.7 388.4 339.5 385.3 340.1 C382.2 340.8 379 341.3 375.2 341.8 C371.5 342.3 367.7 342.7 362.8 343 C357.9 343.4 356.4 343.6 345.9 343.8 C335.5 343.9 315.3 344 300 344 C284.7 344 264.5 343.9 254.1 343.8 C243.6 343.6 242.1 343.4 237.2 343 C232.3 342.7 228.5 342.3 224.8 341.8 C221 341.3 217.8 340.8 214.7 340.1 C211.6 339.5 208.8 338.7 206.2 337.9 C203.6 337.1 201.2 336.2 198.9 335.1 C196.7 334.1 194.6 333 192.7 331.9 C190.7 330.7 188.9 329.4 187.2 328 C185.6 326.6 184 325.1 182.6 323.4 C181.1 321.8 179.8 320.1 178.6 318.2 C177.4 316.3 176.3 314.3 175.3 312.2 C174.3 310 173.5 307.7 172.7 305.1 C171.9 302.5 171.2 299.8 170.6 296.7 C170 293.6 169.5 290.4 169.2 286.3 C168.8 282.3 168.5 281 168.3 272.3 C168.1 263.6 168 246.8 168 234 C168 221.2 168.1 204.4 168.3 195.7 C168.5 187 168.8 185.7 169.2 181.7 C169.5 177.6 170 174.4 170.6 171.3 C171.2 168.2 171.9 165.5 172.7 162.9 C173.5 160.3 174.3 158 175.3 155.8 C176.3 153.7 177.4 151.7 178.6 149.8 C179.8 147.9 181.1 146.2 182.6 144.6 C184 142.9 185.6 141.4 187.2 140 C188.9 138.6 190.7 137.3 192.7 136.1 C194.6 135 196.7 133.9 198.9 132.9 C201.2 131.8 203.6 130.9 206.2 130.1 C208.8 129.3 211.6 128.5 214.7 127.9 C217.8 127.2 221 126.7 224.8 126.2 C228.5 125.7 232.3 125.3 237.2 125 C242.1 124.6 243.6 124.4 254.1 124.2 C264.5 124.1 284.7 124 300 124 C315.3 124 335.5 124.1 345.9 124.2 C356.4 124.4 357.9 124.6 362.8 125 C367.7 125.3 371.5 125.7 375.2 126.2 C379 126.7 382.2 127.2 385.3 127.9 C388.4 128.5 391.2 129.3 393.8 130.1 C396.4 130.9 398.8 131.8 401.1 132.9 C403.3 133.9 405.4 135 407.3 136.1 C409.3 137.3 411.1 138.6 412.8 140 C414.4 141.4 416 142.9 417.4 144.6 C418.9 146.2 420.2 147.9 421.4 149.8 C422.6 151.7 423.7 153.7 424.7 155.8 C425.7 158 426.5 160.3 427.3 162.9 C428.1 165.5 428.8 168.2 429.4 171.3 C430 174.4 430.5 177.6 430.8 181.7 C431.2 185.7 431.5 187 431.7 195.7 C431.9 204.4 432 227.6 432 234 Z" fill="none" stroke="#0C0D11" stroke-width="5" stroke-linejoin="round" stroke-linecap="round"/><path d="M188 168 Q194 142 224 134" fill="none" stroke="#FFFFFF" stroke-width="4.4" stroke-linejoin="round" stroke-linecap="round"/><g transform="translate(80 258) rotate(-16)"><clipPath id="plotty27"><path d="M-22 24 L22 24 L20 40 L-20 40 Z"/></clipPath><path d="M-22 24 L22 24 L20 40 L-20 40 Z" fill="#0C0D11" transform="translate(1 1.2)" stroke="#0C0D11" stroke-width="4.2" stroke-linejoin="round"/><path d="M-22 24 L22 24 L20 40 L-20 40 Z" fill="#17C3B2"/><g clip-path="url(#plotty27)"><path d="M6 18 L30 18 L30 46 L8 46 Z" fill="#0A8A7E"/></g><path d="M-22 24 L22 24 L20 40 L-20 40 Z" fill="none" stroke="#0C0D11" stroke-width="4.2" stroke-linejoin="round" stroke-linecap="round"/><clipPath id="plotty28"><path d="M-8.4 -9.7 C-11.4 -15.7 -23.3 -39.5 -26.3 -45.5 C-30.7 -54.4 -45.1 -47.4 -40.7 -38.4 C-37.9 -32.4 -26.5 -8.3 -23.6 -2.3 Z"/></clipPath><path d="M-8.4 -9.7 C-11.4 -15.7 -23.3 -39.5 -26.3 -45.5 C-30.7 -54.4 -45.1 -47.4 -40.7 -38.4 C-37.9 -32.4 -26.5 -8.3 -23.6 -2.3 Z" fill="#0C0D11" transform="translate(1 1.2)" stroke="#0C0D11" stroke-width="4.2" stroke-linejoin="round"/><path d="M-8.4 -9.7 C-11.4 -15.7 -23.3 -39.5 -26.3 -45.5 C-30.7 -54.4 -45.1 -47.4 -40.7 -38.4 C-37.9 -32.4 -26.5 -8.3 -23.6 -2.3 Z" fill="#EEF2F6"/><g clip-path="url(#plotty28)"><path d="M-12.1 -1.2 L-39.8 -57.8 L-25.7 -64.7 L1.9 -8.1 Z" fill="#B9C8D8"/></g><path d="M-8.4 -9.7 C-11.4 -15.7 -23.3 -39.5 -26.3 -45.5 C-30.7 -54.4 -45.1 -47.4 -40.7 -38.4 C-37.9 -32.4 -26.5 -8.3 -23.6 -2.3 Z" fill="none" stroke="#0C0D11" stroke-width="4.2" stroke-linejoin="round" stroke-linecap="round"/><clipPath id="plotty29"><path d="M8.5 -10.4 C8 -17.8 6.2 -47 5.7 -54.4 C5.2 -64.3 -10.8 -63.4 -10.3 -53.5 C-10 -46.2 -8.8 -16.9 -8.5 -9.6 Z"/></clipPath><path d="M8.5 -10.4 C8 -17.8 6.2 -47 5.7 -54.4 C5.2 -64.3 -10.8 -63.4 -10.3 -53.5 C-10 -46.2 -8.8 -16.9 -8.5 -9.6 Z" fill="#0C0D11" transform="translate(1 1.2)" stroke="#0C0D11" stroke-width="4.2" stroke-linejoin="round"/><path d="M8.5 -10.4 C8 -17.8 6.2 -47 5.7 -54.4 C5.2 -64.3 -10.8 -63.4 -10.3 -53.5 C-10 -46.2 -8.8 -16.9 -8.5 -9.6 Z" fill="#EEF2F6"/><g clip-path="url(#plotty29)"><path d="M1.7 -4.1 L-1.8 -71 L13.8 -71.8 L17.3 -4.9 Z" fill="#B9C8D8"/></g><path d="M8.5 -10.4 C8 -17.8 6.2 -47 5.7 -54.4 C5.2 -64.3 -10.8 -63.4 -10.3 -53.5 C-10 -46.2 -8.8 -16.9 -8.5 -9.6 Z" fill="none" stroke="#0C0D11" stroke-width="4.2" stroke-linejoin="round" stroke-linecap="round"/><clipPath id="plotty30"><path d="M24 -3.1 C26.2 -9.4 35 -34.6 37.2 -40.9 C40.6 -50.2 25.6 -55.6 22.2 -46.3 C19.8 -40.1 10.4 -15.1 8 -8.9 Z"/></clipPath><path d="M24 -3.1 C26.2 -9.4 35 -34.6 37.2 -40.9 C40.6 -50.2 25.6 -55.6 22.2 -46.3 C19.8 -40.1 10.4 -15.1 8 -8.9 Z" fill="#0C0D11" transform="translate(1 1.2)" stroke="#0C0D11" stroke-width="4.2" stroke-linejoin="round"/><path d="M24 -3.1 C26.2 -9.4 35 -34.6 37.2 -40.9 C40.6 -50.2 25.6 -55.6 22.2 -46.3 C19.8 -40.1 10.4 -15.1 8 -8.9 Z" fill="#EEF2F6"/><g clip-path="url(#plotty30)"><path d="M15.2 0.1 L36.8 -59.1 L51.5 -53.7 L29.9 5.5 Z" fill="#B9C8D8"/></g><path d="M24 -3.1 C26.2 -9.4 35 -34.6 37.2 -40.9 C40.6 -50.2 25.6 -55.6 22.2 -46.3 C19.8 -40.1 10.4 -15.1 8 -8.9 Z" fill="none" stroke="#0C0D11" stroke-width="4.2" stroke-linejoin="round" stroke-linecap="round"/><clipPath id="plotty31"><path d="M-14.6 2.1 C-18.7 -1.5 -34.7 -15.5 -38.8 -19 C-45.7 -25.2 -55.7 -14.1 -48.8 -7.8 C-44.9 -4.2 -29.3 10.3 -25.4 13.9 Z"/></clipPath><path d="M-14.6 2.1 C-18.7 -1.5 -34.7 -15.5 -38.8 -19 C-45.7 -25.2 -55.7 -14.1 -48.8 -7.8 C-44.9 -4.2 -29.3 10.3 -25.4 13.9 Z" fill="#0C0D11" transform="translate(1 1.2)" stroke="#0C0D11" stroke-width="4.2" stroke-linejoin="round"/><path d="M-14.6 2.1 C-18.7 -1.5 -34.7 -15.5 -38.8 -19 C-45.7 -25.2 -55.7 -14.1 -48.8 -7.8 C-44.9 -4.2 -29.3 10.3 -25.4 13.9 Z" fill="#EEF2F6"/><g clip-path="url(#plotty31)"><path d="M-14.7 11.1 L-54.8 -25.1 L-45 -36 L-4.8 0.1 Z" fill="#B9C8D8"/></g><path d="M-14.6 2.1 C-18.7 -1.5 -34.7 -15.5 -38.8 -19 C-45.7 -25.2 -55.7 -14.1 -48.8 -7.8 C-44.9 -4.2 -29.3 10.3 -25.4 13.9 Z" fill="none" stroke="#0C0D11" stroke-width="4.2" stroke-linejoin="round" stroke-linecap="round"/><clipPath id="plotty32"><path d="M-26 -14 C-21.7 -15 -8.7 -20 0 -20 C8.7 -20 21 -18.7 26 -14 C31 -9.3 31 1 30 8 C29 15 28.3 24.7 20 28 C11.7 31.3 -11.7 31.3 -20 28 C-28.3 24.7 -29 15 -30 8 C-31 1 -26.7 -10.3 -26 -14 Z"/></clipPath><path d="M-26 -14 C-21.7 -15 -8.7 -20 0 -20 C8.7 -20 21 -18.7 26 -14 C31 -9.3 31 1 30 8 C29 15 28.3 24.7 20 28 C11.7 31.3 -11.7 31.3 -20 28 C-28.3 24.7 -29 15 -30 8 C-31 1 -26.7 -10.3 -26 -14 Z" fill="#0C0D11" transform="translate(1.4 1.6)" stroke="#0C0D11" stroke-width="4.6" stroke-linejoin="round"/><path d="M-26 -14 C-21.7 -15 -8.7 -20 0 -20 C8.7 -20 21 -18.7 26 -14 C31 -9.3 31 1 30 8 C29 15 28.3 24.7 20 28 C11.7 31.3 -11.7 31.3 -20 28 C-28.3 24.7 -29 15 -30 8 C-31 1 -26.7 -10.3 -26 -14 Z" fill="#EEF2F6"/><g clip-path="url(#plotty32)"><path d="M8 -30 L40 -30 L40 40 L0 40 Z" fill="#B9C8D8"/></g><path d="M-26 -14 C-21.7 -15 -8.7 -20 0 -20 C8.7 -20 21 -18.7 26 -14 C31 -9.3 31 1 30 8 C29 15 28.3 24.7 20 28 C11.7 31.3 -11.7 31.3 -20 28 C-28.3 24.7 -29 15 -30 8 C-31 1 -26.7 -10.3 -26 -14 Z" fill="none" stroke="#0C0D11" stroke-width="4.6" stroke-linejoin="round" stroke-linecap="round"/><path d="M-12 -8 L-9 -1 M2 -11 L3 -4 M14 -8 L12 -1" fill="none" stroke="#0C0D11" stroke-width="2.2" stroke-linejoin="round" stroke-linecap="round"/></g><path d="M29.8 213.9 L28 216.3 L26.5 218.9 L25.4 221.6 L24.7 224.5 L24.1 227.3 L23.7 230.2 L23.4 233.1 L23.1 236 L23 238.9 L23 241.8 L23 244.7 L23.2 247.6 L23.5 250.5 L24 253.3 L24.8 256.1 L25.6 258.8 L26.6 261.5 L27.8 264.1 L28.2 263.9 L28.1 261.2 L28 258.4 L27.9 255.6 L27.9 252.8 L27.8 250.1 L27.6 247.3 L27.5 244.6 L27.5 241.8 L27.5 239.1 L27.6 236.3 L27.8 233.6 L28.2 230.8 L28.6 228.1 L29.1 225.4 L29.6 222.7 L29.9 219.9 L30.1 217 L30.2 214.1 Z" fill="#DDF4F1"/><path d="M121.9 186.2 L123.4 188.1 L124.8 190 L126.2 191.7 L127.7 193.3 L129.2 194.8 L130.5 196.5 L131.8 198.2 L133 199.9 L134.1 201.7 L135 203.6 L136 205.5 L136.8 207.5 L137.6 209.4 L138.4 211.5 L139.3 213.5 L140.1 215.6 L141 217.8 L141.8 220 L142.2 220 L142.3 217.6 L142.2 215.2 L142 212.8 L141.7 210.5 L141.1 208.2 L140.4 206 L139.5 203.9 L138.5 201.8 L137.4 199.8 L136.3 197.8 L135 195.9 L133.6 194.1 L132.1 192.3 L130.5 190.5 L128.8 188.9 L126.8 187.6 L124.5 186.6 L122.1 185.8 Z" fill="#DDF4F1"/><g transform="translate(522 372) rotate(8)"><clipPath id="plotty33"><path d="M-22 24 L22 24 L20 40 L-20 40 Z"/></clipPath><path d="M-22 24 L22 24 L20 40 L-20 40 Z" fill="#0C0D11" transform="translate(1 1.2)" stroke="#0C0D11" stroke-width="4.2" stroke-linejoin="round"/><path d="M-22 24 L22 24 L20 40 L-20 40 Z" fill="#17C3B2"/><g clip-path="url(#plotty33)"><path d="M6 18 L30 18 L30 46 L8 46 Z" fill="#0A8A7E"/></g><path d="M-22 24 L22 24 L20 40 L-20 40 Z" fill="none" stroke="#0C0D11" stroke-width="4.2" stroke-linejoin="round" stroke-linecap="round"/><clipPath id="plotty34"><path d="M-6.6 -9.2 C-7.6 -16.1 -11.9 -43.8 -12.9 -50.7 C-14.3 -60.5 -30.1 -58.3 -28.8 -48.5 C-27.9 -41.5 -24.3 -13.8 -23.4 -6.8 Z"/></clipPath><path d="M-6.6 -9.2 C-7.6 -16.1 -11.9 -43.8 -12.9 -50.7 C-14.3 -60.5 -30.1 -58.3 -28.8 -48.5 C-27.9 -41.5 -24.3 -13.8 -23.4 -6.8 Z" fill="#0C0D11" transform="translate(1 1.2)" stroke="#0C0D11" stroke-width="4.2" stroke-linejoin="round"/><path d="M-6.6 -9.2 C-7.6 -16.1 -11.9 -43.8 -12.9 -50.7 C-14.3 -60.5 -30.1 -58.3 -28.8 -48.5 C-27.9 -41.5 -24.3 -13.8 -23.4 -6.8 Z" fill="#EEF2F6"/><g clip-path="url(#plotty34)"><path d="M-12.8 -2.2 L-21.9 -66.6 L-6.4 -68.8 L2.7 -4.4 Z" fill="#B9C8D8"/></g><path d="M-6.6 -9.2 C-7.6 -16.1 -11.9 -43.8 -12.9 -50.7 C-14.3 -60.5 -30.1 -58.3 -28.8 -48.5 C-27.9 -41.5 -24.3 -13.8 -23.4 -6.8 Z" fill="none" stroke="#0C0D11" stroke-width="4.2" stroke-linejoin="round" stroke-linecap="round"/><clipPath id="plotty35"><path d="M8.5 -10 C8.4 -17.7 8.1 -48.3 8 -56 C8 -65.9 -8 -65.9 -8 -56 C-8.1 -48.3 -8.4 -17.7 -8.5 -10 Z"/></clipPath><path d="M8.5 -10 C8.4 -17.7 8.1 -48.3 8 -56 C8 -65.9 -8 -65.9 -8 -56 C-8.1 -48.3 -8.4 -17.7 -8.5 -10 Z" fill="#0C0D11" transform="translate(1 1.2)" stroke="#0C0D11" stroke-width="4.2" stroke-linejoin="round"/><path d="M8.5 -10 C8.4 -17.7 8.1 -48.3 8 -56 C8 -65.9 -8 -65.9 -8 -56 C-8.1 -48.3 -8.4 -17.7 -8.5 -10 Z" fill="#EEF2F6"/><g clip-path="url(#plotty35)"><path d="M1.4 -4 L1.4 -73 L17 -73 L17 -4 Z" fill="#B9C8D8"/></g><path d="M8.5 -10 C8.4 -17.7 8.1 -48.3 8 -56 C8 -65.9 -8 -65.9 -8 -56 C-8.1 -48.3 -8.4 -17.7 -8.5 -10 Z" fill="none" stroke="#0C0D11" stroke-width="4.2" stroke-linejoin="round" stroke-linecap="round"/><clipPath id="plotty36"><path d="M23.4 -6.8 C24.3 -13.8 27.9 -41.5 28.8 -48.5 C30.1 -58.3 14.3 -60.5 12.9 -50.7 C11.9 -43.8 7.6 -16.1 6.6 -9.2 Z"/></clipPath><path d="M23.4 -6.8 C24.3 -13.8 27.9 -41.5 28.8 -48.5 C30.1 -58.3 14.3 -60.5 12.9 -50.7 C11.9 -43.8 7.6 -16.1 6.6 -9.2 Z" fill="#0C0D11" transform="translate(1 1.2)" stroke="#0C0D11" stroke-width="4.2" stroke-linejoin="round"/><path d="M23.4 -6.8 C24.3 -13.8 27.9 -41.5 28.8 -48.5 C30.1 -58.3 14.3 -60.5 12.9 -50.7 C11.9 -43.8 7.6 -16.1 6.6 -9.2 Z" fill="#EEF2F6"/><g clip-path="url(#plotty36)"><path d="M15.5 -1.9 L24.6 -66.2 L40 -64.1 L31 0.3 Z" fill="#B9C8D8"/></g><path d="M23.4 -6.8 C24.3 -13.8 27.9 -41.5 28.8 -48.5 C30.1 -58.3 14.3 -60.5 12.9 -50.7 C11.9 -43.8 7.6 -16.1 6.6 -9.2 Z" fill="none" stroke="#0C0D11" stroke-width="4.2" stroke-linejoin="round" stroke-linecap="round"/><clipPath id="plotty37"><path d="M-26 -14 C-21.7 -15 -8.7 -20 0 -20 C8.7 -20 21 -18.7 26 -14 C31 -9.3 31 1 30 8 C29 15 28.3 24.7 20 28 C11.7 31.3 -11.7 31.3 -20 28 C-28.3 24.7 -29 15 -30 8 C-31 1 -26.7 -10.3 -26 -14 Z"/></clipPath><path d="M-26 -14 C-21.7 -15 -8.7 -20 0 -20 C8.7 -20 21 -18.7 26 -14 C31 -9.3 31 1 30 8 C29 15 28.3 24.7 20 28 C11.7 31.3 -11.7 31.3 -20 28 C-28.3 24.7 -29 15 -30 8 C-31 1 -26.7 -10.3 -26 -14 Z" fill="#0C0D11" transform="translate(1.4 1.6)" stroke="#0C0D11" stroke-width="4.6" stroke-linejoin="round"/><path d="M-26 -14 C-21.7 -15 -8.7 -20 0 -20 C8.7 -20 21 -18.7 26 -14 C31 -9.3 31 1 30 8 C29 15 28.3 24.7 20 28 C11.7 31.3 -11.7 31.3 -20 28 C-28.3 24.7 -29 15 -30 8 C-31 1 -26.7 -10.3 -26 -14 Z" fill="#EEF2F6"/><g clip-path="url(#plotty37)"><path d="M8 -30 L40 -30 L40 40 L0 40 Z" fill="#B9C8D8"/></g><path d="M-26 -14 C-21.7 -15 -8.7 -20 0 -20 C8.7 -20 21 -18.7 26 -14 C31 -9.3 31 1 30 8 C29 15 28.3 24.7 20 28 C11.7 31.3 -11.7 31.3 -20 28 C-28.3 24.7 -29 15 -30 8 C-31 1 -26.7 -10.3 -26 -14 Z" fill="none" stroke="#0C0D11" stroke-width="4.6" stroke-linejoin="round" stroke-linecap="round"/><clipPath id="plotty38"><path d="M-28 2 C-24 1.3 -10.7 -2 -4 -2 C2.7 -2 9.3 -0.3 12 2 C14.7 4.3 14.7 9.7 12 12 C9.3 14.3 2.7 15.7 -4 16 C-10.7 16.3 -24 16.3 -28 14 C-32 11.7 -28 4 -28 2 Z"/></clipPath><path d="M-28 2 C-24 1.3 -10.7 -2 -4 -2 C2.7 -2 9.3 -0.3 12 2 C14.7 4.3 14.7 9.7 12 12 C9.3 14.3 2.7 15.7 -4 16 C-10.7 16.3 -24 16.3 -28 14 C-32 11.7 -28 4 -28 2 Z" fill="#0C0D11" transform="translate(0.8 0.9)" stroke="#0C0D11" stroke-width="4" stroke-linejoin="round"/><path d="M-28 2 C-24 1.3 -10.7 -2 -4 -2 C2.7 -2 9.3 -0.3 12 2 C14.7 4.3 14.7 9.7 12 12 C9.3 14.3 2.7 15.7 -4 16 C-10.7 16.3 -24 16.3 -28 14 C-32 11.7 -28 4 -28 2 Z" fill="#EEF2F6"/><g clip-path="url(#plotty38)"><path d="M-2 8 L20 8 L20 24 L-2 24 Z" fill="#B9C8D8"/></g><path d="M-28 2 C-24 1.3 -10.7 -2 -4 -2 C2.7 -2 9.3 -0.3 12 2 C14.7 4.3 14.7 9.7 12 12 C9.3 14.3 2.7 15.7 -4 16 C-10.7 16.3 -24 16.3 -28 14 C-32 11.7 -28 4 -28 2 Z" fill="none" stroke="#0C0D11" stroke-width="4" stroke-linejoin="round" stroke-linecap="round"/><path d="M-14 26 Q0 30 14 26" fill="none" stroke="#0C0D11" stroke-width="2.2" stroke-linejoin="round" stroke-linecap="round"/></g></g></g></g></svg>
